<svg xmlns="http://www.w3.org/2000/svg" xmlns:xlink="http://www.w3.org/1999/xlink" viewBox="0 0 640 480" width="640" height="480">
 <defs>
  <path id="0" d="m1 1v14l9-7z"/>
 </defs>
 <rect height="480" rx="2.605" width="640" fill="#d64937" fill-rule="evenodd"/>
 <g>
  <path d="m 147,420 c -1.207,0 -2,0.793 -2,2 v 58 h 350 v -58 c 0,-1.207 -0.793,-2 -2,-2 z" fill="#2d2d2d" fill-rule="evenodd"/>
  <path color="#000" fill="#888" d="m147 419c-1.476 0-3.01 1.524-3 3v58h1v-58c0-.939 1.061-2 2-2h346c.939 0 2.01 1.061 2 2v58h1v-58c0-1.476-1.524-3-3-3z"/>
  <g>
   <path d="m 245.00009,451.01014 a 17.00009,16.999963 0 0 1 -34.00018,0 17.00009,16.999963 0 1 1 34.00018,0" fill="#9b59b6" fill-rule="evenodd"/>
   <path d="m 291.00009,451.01014 a 17.00009,16.999963 0 0 1 -34.00018,0 17.00009,16.999963 0 1 1 34.00018,0" fill="#f39c12" fill-rule="evenodd"/>
   <path d="m 337.00008,451.01014 a 17.00009,16.999963 0 0 1 -34.00018,0 17.00009,16.999963 0 1 1 34.00018,0" fill="#2980b9" fill-rule="evenodd"/>
   <path d="m 383.00008,451.01014 a 17.00009,16.999963 0 0 1 -34.00018,0 17.00009,16.999963 0 1 1 34.00018,0" fill="#27ae60" fill-rule="evenodd"/>
   <path d="m 429.00008,451.01014 a 17.00009,16.999963 0 0 1 -34.00018,0 17.00009,16.999963 0 1 1 34.00018,0" fill="#f1c40f" fill-rule="evenodd"/>
   <g>
    <path d="m 199.00009,451.01014 a 17.00009,16.999963 0 0 1 -34.00018,0 17.00009,16.999963 0 1 1 34.00018,0" opacity="0.5" fill="#f9f9f6" fill-rule="evenodd"/>
    <path d="m 171,442 h 10 v 8 h -10 z" fill="#f9f9f6"/>
    <path d="m 171,452 h 10 v 8 h -10 z" opacity="0.5" fill="#f9f9f6"/>
    <path d="m 184,442 h 10 v 8 h -10 z" opacity="0.5" fill="#f9f9f6"/>
    <path d="m 184,452 h 10 v 8 h -10 z" opacity="0.5" fill="#f9f9f6"/>
   </g>
   <g>
    <path d="m 475.00009,451.01014 a 17.00009,16.999963 0 0 1 -34.00018,0 17.00009,16.999963 0 1 1 34.00018,0" opacity="0.5" fill="#f9f9f6" fill-rule="evenodd"/>
    <path d="m 454.57,456.71 c 0,1.262 -1.023,2.286 -2.286,2.286 -1.262,0 -2.286,-1.023 -2.286,-2.286 0,-1.262 1.023,-2.286 2.286,-2.286 1.262,0 2.286,1.023 2.286,2.286" fill="#f9f9f9" fill-rule="evenodd"/>
    <path d="m 454.57,451 c 0,1.262 -1.023,2.286 -2.286,2.286 -1.262,0 -2.286,-1.023 -2.286,-2.286 0,-1.262 1.023,-2.286 2.286,-2.286 1.262,0 2.286,1.023 2.286,2.286" fill="#f9f9f9" fill-rule="evenodd"/>
    <path d="m 454.57,445.29 c 0,1.262 -1.023,2.286 -2.286,2.286 -1.262,0 -2.286,-1.023 -2.286,-2.286 0,-1.262 1.023,-2.286 2.286,-2.286 1.262,0 2.286,1.023 2.286,2.286" fill="#f9f9f9" fill-rule="evenodd"/>
    <path d="m 460.28,456.71 c 0,1.262 -1.023,2.286 -2.286,2.286 -1.262,0 -2.286,-1.023 -2.286,-2.286 0,-1.262 1.023,-2.286 2.286,-2.286 1.262,0 2.286,1.023 2.286,2.286" fill="#f9f9f9" fill-rule="evenodd"/>
    <path d="m 460.28,451 c 0,1.262 -1.023,2.286 -2.286,2.286 -1.262,0 -2.286,-1.023 -2.286,-2.286 0,-1.262 1.023,-2.286 2.286,-2.286 1.262,0 2.286,1.023 2.286,2.286" fill="#f9f9f9" fill-rule="evenodd"/>
    <path d="m 460.28,445.29 c 0,1.262 -1.023,2.286 -2.286,2.286 -1.262,0 -2.286,-1.023 -2.286,-2.286 0,-1.262 1.023,-2.286 2.286,-2.286 1.262,0 2.286,1.023 2.286,2.286" fill="#f9f9f9" fill-rule="evenodd"/>
    <path d="m 466,456.71 c 0,1.262 -1.023,2.286 -2.286,2.286 -1.262,0 -2.286,-1.023 -2.286,-2.286 0,-1.262 1.023,-2.286 2.286,-2.286 1.262,0 2.286,1.023 2.286,2.286" fill="#f9f9f9" fill-rule="evenodd"/>
    <path d="m 466,451 c 0,1.262 -1.023,2.286 -2.286,2.286 -1.262,0 -2.286,-1.023 -2.286,-2.286 0,-1.262 1.023,-2.286 2.286,-2.286 1.262,0 2.286,1.023 2.286,2.286" fill="#f9f9f9" fill-rule="evenodd"/>
    <path d="m 466,445.29 c 0,1.262 -1.023,2.286 -2.286,2.286 -1.262,0 -2.286,-1.023 -2.286,-2.286 0,-1.262 1.023,-2.286 2.286,-2.286 1.262,0 2.286,1.023 2.286,2.286" fill="#f9f9f9" fill-rule="evenodd"/>
   </g>
  </g>
 </g>
 <g>
  <rect width="640" rx="2.315" height="30" fill="#2d2d2d" fill-rule="evenodd"/>
  <rect width="640" y="29" rx="2.315" height="1" ry="0.5" fill="#888888" fill-rule="evenodd"/>
  <g>
   <path d="m 19.999898,14.99996 a 4.999968,4.999989 0 0 1 -9.999936,0 4.999968,4.999989 0 1 1 9.999936,0" fill="#dcdcdc" fill-rule="evenodd" fill-opacity="0.941"/>
   <path d="m 33.999898,14.99996 a 4.999968,4.999989 0 1 1 -9.999936,0 4.999968,4.999989 0 1 1 9.999936,0" fill="#dcdcdc" fill-rule="evenodd" fill-opacity="0.941"/>
   <path d="m 47.999898,14.99996 a 4.999968,4.999989 0 1 1 -9.999936,0 4.999968,4.999989 0 1 1 9.999936,0" fill="#dcdcdc" fill-rule="evenodd" fill-opacity="0.941"/>
   <path d="m 630,12 h -10 l 5,6 z" fill="#dcdcdc"/>
   <path d="m 601,10 v 10 l -5,-3 h -2 v -4 h 2 z" fill="#dcdcdc"/>
   <path d="m 603,18 v 2 h 2 v -2 z" fill="#dcdcdc"/>
   <path d="m 603,14 v 2 h 2 v -2 z" fill="#dcdcdc"/>
   <path d="m 603,10 v 2 h 2 v -2 z" fill="#dcdcdc"/>
   <path d="m 570,10 1.5,2 h 12 l 1.5,-2 h -15 m 3,4 1.5,2 h 6 l 1.5,-2 h -9 m 3,4 1.5,2 1.5,-2 h -3" fill="#dcdcdc"/>
   <path d="m 294.5,19.821 h -1.974 v -7.963 h -2.528 v -1.706 h 7.03 v 1.706 H 294.5 v 7.963" fill="#dcdcdc"/>
   <path d="m 303.37,19.821 -0.261,-0.946 h -0.102 c -0.208,0.344 -0.503,0.611 -0.885,0.8 -0.382,0.185 -0.817,0.278 -1.305,0.278 -0.836,0 -1.467,-0.231 -1.891,-0.694 -0.424,-0.467 -0.637,-1.138 -0.637,-2.01 v -4.821 h 1.942 v 4.319 c 0,0.534 0.091,0.935 0.274,1.204 0.183,0.265 0.473,0.397 0.872,0.397 0.543,0 0.936,-0.187 1.178,-0.562 0.242,-0.379 0.363,-1.01 0.363,-1.878 v -3.479 h 1.942 v 7.394 h -1.49" fill="#dcdcdc"/>
   <path d="m 309.85,13.724 c -0.412,0 -0.734,0.137 -0.968,0.41 -0.233,0.269 -0.367,0.653 -0.401,1.151 h 2.725 c -0.009,-0.498 -0.134,-0.882 -0.376,-1.151 -0.242,-0.273 -0.569,-0.41 -0.981,-0.41 m 0.274,6.23 c -1.146,0 -2.042,-0.328 -2.687,-0.985 -0.645,-0.657 -0.968,-1.587 -0.968,-2.791 0,-1.239 0.297,-2.196 0.891,-2.87 0.599,-0.679 1.424,-1.019 2.477,-1.019 1.01,0 1.789,0.298 2.35,0.893 0.56,0.595 0.841,1.418 0.841,2.467 v 0.979 h -4.591 c 0.021,0.573 0.185,1.021 0.49,1.343 0.306,0.322 0.734,0.483 1.286,0.483 0.429,0 0.834,-0.046 1.216,-0.139 0.382,-0.093 0.781,-0.24 1.197,-0.443 v 1.561 c -0.34,0.176 -0.703,0.306 -1.089,0.39 -0.386,0.088 -0.857,0.132 -1.414,0.132" fill="#dcdcdc"/>
   <path d="m 323.97,14.987 c 0,1.689 -0.267,2.939 -0.802,3.75 -0.531,0.811 -1.35,1.217 -2.458,1.217 -1.074,0 -1.885,-0.419 -2.432,-1.257 -0.543,-0.838 -0.815,-2.075 -0.815,-3.71 0,-1.706 0.265,-2.963 0.796,-3.77 0.531,-0.811 1.348,-1.217 2.451,-1.217 1.074,0 1.885,0.423 2.432,1.27 0.552,0.847 0.828,2.086 0.828,3.717 m -4.553,0 c 0,1.186 0.098,2.037 0.293,2.553 0.2,0.511 0.533,0.767 1,0.767 0.458,0 0.79,-0.26 0.993,-0.78 0.204,-0.52 0.306,-1.367 0.306,-2.54 0,-1.186 -0.104,-2.037 -0.312,-2.553 -0.204,-0.52 -0.533,-0.78 -0.987,-0.78 -0.463,0 -0.794,0.26 -0.993,0.78 -0.2,0.516 -0.299,1.367 -0.299,2.553" fill="#dcdcdc"/>
   <path d="m 329.82,19.821 h -1.968 v -5.595 l 0.019,-0.919 0.032,-1.01 c -0.327,0.34 -0.554,0.562 -0.681,0.668 l -1.07,0.893 -0.949,-1.23 2.999,-2.48 h 1.617 v 9.669" fill="#dcdcdc"/>
   <path d="m 332.61,18.876 c 0,-0.37 0.096,-0.65 0.287,-0.84 0.191,-0.19 0.469,-0.284 0.834,-0.284 0.352,0 0.624,0.097 0.815,0.291 0.195,0.194 0.293,0.472 0.293,0.833 0,0.348 -0.098,0.624 -0.293,0.827 -0.195,0.198 -0.467,0.298 -0.815,0.298 -0.357,0 -0.632,-0.097 -0.828,-0.291 -0.195,-0.198 -0.293,-0.476 -0.293,-0.833 m 0,-5.463 c 0,-0.37 0.096,-0.65 0.287,-0.84 0.191,-0.19 0.469,-0.284 0.834,-0.284 0.352,0 0.624,0.097 0.815,0.291 0.195,0.194 0.293,0.472 0.293,0.833 0,0.357 -0.1,0.635 -0.299,0.833 -0.195,0.194 -0.465,0.291 -0.809,0.291 -0.357,0 -0.632,-0.097 -0.828,-0.291 -0.195,-0.194 -0.293,-0.472 -0.293,-0.833" fill="#dcdcdc"/>
   <path d="m 342.56,14.987 c 0,1.689 -0.267,2.939 -0.802,3.75 -0.531,0.811 -1.35,1.217 -2.458,1.217 -1.074,0 -1.885,-0.419 -2.432,-1.257 -0.543,-0.838 -0.815,-2.075 -0.815,-3.71 0,-1.706 0.265,-2.963 0.796,-3.77 C 337.38,10.406 338.197,10 339.3,10 c 1.074,0 1.885,0.423 2.432,1.27 0.552,0.847 0.828,2.086 0.828,3.717 m -4.553,0 c 0,1.186 0.098,2.037 0.293,2.553 0.2,0.511 0.533,0.767 1,0.767 0.458,0 0.79,-0.26 0.993,-0.78 0.204,-0.52 0.306,-1.367 0.306,-2.54 0,-1.186 -0.104,-2.037 -0.312,-2.553 -0.204,-0.52 -0.533,-0.78 -0.987,-0.78 -0.463,0 -0.794,0.26 -0.993,0.78 -0.2,0.516 -0.299,1.367 -0.299,2.553" fill="#dcdcdc"/>
   <path d="m 350,14.987 c 0,1.689 -0.267,2.939 -0.802,3.75 -0.531,0.811 -1.35,1.217 -2.458,1.217 -1.074,0 -1.885,-0.419 -2.432,-1.257 -0.543,-0.838 -0.815,-2.075 -0.815,-3.71 0,-1.706 0.265,-2.963 0.796,-3.77 0.531,-0.811 1.348,-1.217 2.451,-1.217 1.074,0 1.885,0.423 2.432,1.27 0.552,0.847 0.828,2.086 0.828,3.717 m -4.553,0 c 0,1.186 0.098,2.037 0.293,2.553 0.2,0.511 0.533,0.767 1,0.767 0.458,0 0.79,-0.26 0.993,-0.78 0.204,-0.52 0.306,-1.367 0.306,-2.54 0,-1.186 -0.104,-2.037 -0.312,-2.553 -0.204,-0.52 -0.533,-0.78 -0.987,-0.78 -0.463,0 -0.794,0.26 -0.993,0.78 -0.2,0.516 -0.299,1.367 -0.299,2.553" fill="#dcdcdc"/>
   <path d="m 535,10 c -3,1 -5,0 -5,8 h 10 c 0,-8 -2,-7 -5,-8" fill="#dcdcdc"/>
   <path d="m 533,18 h 4 c 0,2 -2,2 -2,2 0,0 -2,0 -2,-2" fill="#dcdcdc"/>
  </g>
 </g>
 <use xlink:href="#1" width="640" height="480" transform="translate(559,170)"/>
 <use xlink:href="#2" width="640" height="480" transform="translate(559,170)"/>
 <g>
  <path fill="#2d2d2d" d="m535 35l-10 10h-49.32c-10.678 0-10.678 0-10.678 10v135c0 10 0 10 10 10h120c10 0 10 0 10-10v-135c0-10 0-10-10-10h-50z"/>
  <g>
   <path d="m 595,50 v 2 h -8 v -2 z" fill="#dcdcdc"/>
   <path d="m 593,54 v 2 h -8 v -2 z" fill="#dcdcdc"/>
   <path d="m 591,58 v 2 h -8 v -2 z" fill="#dcdcdc"/>
  </g>
  <g>
   <path d="m 509.00018,127.01014 a 17.00009,16.999963 0 0 1 -34.00018,0 17.00009,16.999963 0 1 1 34.00018,0" fill="#2980b9" fill-rule="evenodd"/>
   <g>
    <g>
     <path d="m 520,119.9 v -1.02 h 1.704 v -4.692 l -1.65,1.03 v -1.079 l 1.724,-1.118 h 1.299 v 5.859 h 1.577 v 1.02 h -4.653" fill="#dcdcdc"/>
     <path d="m 531.52,119.9 v -2.964 c 0,-0.205 -0.015,-0.392 -0.044,-0.562 -0.026,-0.173 -0.072,-0.319 -0.137,-0.439 -0.062,-0.124 -0.145,-0.22 -0.249,-0.288 -0.101,-0.068 -0.225,-0.103 -0.371,-0.103 -0.14,0 -0.267,0.037 -0.381,0.112 -0.114,0.072 -0.213,0.176 -0.298,0.313 -0.081,0.133 -0.145,0.295 -0.19,0.483 -0.046,0.186 -0.068,0.391 -0.068,0.615 v 2.832 h -1.372 v -4.102 c 0,-0.114 -0.002,-0.231 -0.005,-0.352 0,-0.12 -0.003,-0.234 -0.01,-0.342 -0.003,-0.111 -0.007,-0.208 -0.01,-0.293 -0.003,-0.088 -0.008,-0.153 -0.015,-0.195 h 1.309 c 0.007,0.039 0.013,0.103 0.019,0.19 0.006,0.085 0.013,0.179 0.019,0.283 0.007,0.104 0.011,0.208 0.015,0.313 0.006,0.104 0.01,0.192 0.01,0.264 h 0.019 c 0.169,-0.404 0.379,-0.697 0.63,-0.879 0.254,-0.182 0.557,-0.273 0.908,-0.273 0.404,0 0.728,0.099 0.972,0.298 0.247,0.195 0.413,0.48 0.498,0.855 h 0.029 c 0.094,-0.218 0.195,-0.4 0.303,-0.547 0.111,-0.146 0.231,-0.264 0.361,-0.352 0.133,-0.091 0.277,-0.156 0.43,-0.195 0.156,-0.039 0.326,-0.059 0.508,-0.059 0.29,0 0.534,0.052 0.732,0.156 0.202,0.104 0.365,0.247 0.488,0.43 0.127,0.182 0.218,0.397 0.273,0.645 0.059,0.247 0.088,0.514 0.088,0.801 v 3.354 h -1.362 v -2.964 c 0,-0.205 -0.015,-0.392 -0.044,-0.562 -0.026,-0.173 -0.072,-0.319 -0.137,-0.439 -0.062,-0.124 -0.145,-0.22 -0.249,-0.288 -0.101,-0.068 -0.225,-0.103 -0.371,-0.103 -0.137,0 -0.262,0.036 -0.376,0.107 -0.111,0.068 -0.208,0.168 -0.293,0.298 -0.081,0.127 -0.145,0.28 -0.19,0.459 -0.046,0.179 -0.072,0.378 -0.078,0.596 v 2.895 h -1.362" fill="#dcdcdc"/>
     <path d="m 537.29,113.67 v -1.01 h 1.372 v 1.01 h -1.372 m 0,6.235 v -5.283 h 1.372 v 5.283 h -1.372" fill="#dcdcdc"/>
     <path d="m 544.52,118.36 c 0,0.254 -0.054,0.482 -0.161,0.684 -0.104,0.202 -0.257,0.374 -0.459,0.518 -0.202,0.14 -0.449,0.249 -0.742,0.327 -0.293,0.075 -0.627,0.112 -1,0.112 -0.335,0 -0.638,-0.024 -0.908,-0.073 -0.27,-0.049 -0.508,-0.129 -0.713,-0.239 -0.202,-0.114 -0.371,-0.26 -0.508,-0.439 -0.137,-0.179 -0.239,-0.4 -0.308,-0.664 l 1.206,-0.181 c 0.039,0.146 0.093,0.265 0.161,0.356 0.068,0.091 0.153,0.161 0.254,0.21 0.101,0.049 0.218,0.081 0.352,0.098 0.137,0.016 0.291,0.024 0.464,0.024 0.156,0 0.301,-0.008 0.435,-0.024 0.137,-0.019 0.254,-0.05 0.352,-0.093 0.101,-0.046 0.179,-0.107 0.234,-0.186 0.055,-0.081 0.083,-0.182 0.083,-0.303 0,-0.137 -0.041,-0.244 -0.122,-0.322 -0.078,-0.081 -0.187,-0.146 -0.327,-0.195 -0.137,-0.052 -0.299,-0.096 -0.488,-0.132 -0.186,-0.039 -0.384,-0.083 -0.596,-0.132 -0.221,-0.049 -0.439,-0.107 -0.654,-0.176 -0.215,-0.068 -0.407,-0.161 -0.576,-0.278 -0.169,-0.117 -0.306,-0.265 -0.41,-0.444 -0.104,-0.182 -0.156,-0.412 -0.156,-0.688 0,-0.251 0.049,-0.474 0.146,-0.669 0.098,-0.199 0.241,-0.366 0.43,-0.503 0.189,-0.14 0.422,-0.246 0.698,-0.317 0.28,-0.075 0.601,-0.112 0.962,-0.112 0.286,0 0.553,0.028 0.801,0.083 0.247,0.052 0.469,0.137 0.664,0.254 0.195,0.114 0.358,0.26 0.488,0.439 0.133,0.179 0.226,0.396 0.278,0.649 l -1.216,0.127 c -0.023,-0.127 -0.063,-0.231 -0.122,-0.313 -0.059,-0.085 -0.132,-0.151 -0.22,-0.2 -0.085,-0.049 -0.184,-0.081 -0.298,-0.098 -0.114,-0.019 -0.239,-0.029 -0.376,-0.029 -0.326,0 -0.57,0.042 -0.732,0.127 -0.163,0.081 -0.244,0.22 -0.244,0.415 0,0.12 0.033,0.216 0.098,0.288 0.068,0.072 0.163,0.132 0.283,0.181 0.124,0.046 0.269,0.086 0.435,0.122 0.169,0.033 0.353,0.073 0.552,0.122 0.244,0.052 0.483,0.114 0.718,0.186 0.238,0.068 0.448,0.164 0.63,0.288 0.186,0.12 0.334,0.277 0.444,0.469 0.114,0.192 0.171,0.436 0.171,0.732" fill="#dcdcdc"/>
     <path d="m 550.09,118.36 c 0,0.254 -0.054,0.482 -0.161,0.684 -0.104,0.202 -0.257,0.374 -0.459,0.518 -0.202,0.14 -0.449,0.249 -0.742,0.327 -0.293,0.075 -0.627,0.112 -1,0.112 -0.335,0 -0.638,-0.024 -0.908,-0.073 -0.27,-0.049 -0.508,-0.129 -0.713,-0.239 -0.202,-0.114 -0.371,-0.26 -0.508,-0.439 -0.137,-0.179 -0.239,-0.4 -0.308,-0.664 l 1.206,-0.181 c 0.039,0.146 0.093,0.265 0.161,0.356 0.068,0.091 0.153,0.161 0.254,0.21 0.101,0.049 0.218,0.081 0.352,0.098 0.137,0.016 0.291,0.024 0.464,0.024 0.156,0 0.301,-0.008 0.435,-0.024 0.137,-0.019 0.254,-0.05 0.352,-0.093 0.101,-0.046 0.179,-0.107 0.234,-0.186 0.055,-0.081 0.083,-0.182 0.083,-0.303 0,-0.137 -0.041,-0.244 -0.122,-0.322 -0.078,-0.081 -0.187,-0.146 -0.327,-0.195 -0.137,-0.052 -0.299,-0.096 -0.488,-0.132 -0.186,-0.039 -0.384,-0.083 -0.596,-0.132 -0.221,-0.049 -0.439,-0.107 -0.654,-0.176 -0.215,-0.068 -0.407,-0.161 -0.576,-0.278 -0.169,-0.117 -0.306,-0.265 -0.41,-0.444 -0.104,-0.182 -0.156,-0.412 -0.156,-0.688 0,-0.251 0.049,-0.474 0.146,-0.669 0.098,-0.199 0.241,-0.366 0.43,-0.503 0.189,-0.14 0.422,-0.246 0.698,-0.317 0.28,-0.075 0.601,-0.112 0.962,-0.112 0.286,0 0.553,0.028 0.801,0.083 0.247,0.052 0.469,0.137 0.664,0.254 0.195,0.114 0.358,0.26 0.488,0.439 0.133,0.179 0.226,0.396 0.278,0.649 l -1.216,0.127 c -0.023,-0.127 -0.063,-0.231 -0.122,-0.313 -0.059,-0.085 -0.132,-0.151 -0.22,-0.2 -0.085,-0.049 -0.184,-0.081 -0.298,-0.098 -0.114,-0.019 -0.239,-0.029 -0.376,-0.029 -0.326,0 -0.57,0.042 -0.732,0.127 -0.163,0.081 -0.244,0.22 -0.244,0.415 0,0.12 0.033,0.216 0.098,0.288 0.068,0.072 0.163,0.132 0.283,0.181 0.124,0.046 0.269,0.086 0.435,0.122 0.169,0.033 0.353,0.073 0.552,0.122 0.244,0.052 0.483,0.114 0.718,0.186 0.238,0.068 0.448,0.164 0.63,0.288 0.186,0.12 0.334,0.277 0.444,0.469 0.114,0.192 0.171,0.436 0.171,0.732" fill="#dcdcdc"/>
     <path d="m 553.36,120 c -0.381,0 -0.724,-0.055 -1.03,-0.166 -0.303,-0.114 -0.562,-0.285 -0.776,-0.513 -0.215,-0.231 -0.379,-0.519 -0.493,-0.864 -0.114,-0.348 -0.171,-0.755 -0.171,-1.221 0,-0.505 0.067,-0.929 0.2,-1.274 0.137,-0.345 0.319,-0.623 0.547,-0.835 0.231,-0.215 0.496,-0.369 0.796,-0.464 0.299,-0.094 0.615,-0.142 0.947,-0.142 0.417,0 0.771,0.073 1.064,0.22 0.296,0.143 0.539,0.345 0.728,0.605 0.189,0.26 0.327,0.573 0.415,0.938 0.088,0.361 0.132,0.762 0.132,1.201 v 0.039 h -3.389 c 0,0.221 0.019,0.428 0.059,0.62 0.039,0.189 0.103,0.353 0.19,0.493 0.088,0.137 0.202,0.246 0.342,0.327 0.14,0.078 0.309,0.117 0.508,0.117 0.241,0 0.438,-0.05 0.591,-0.151 0.153,-0.104 0.262,-0.264 0.327,-0.479 l 1.294,0.112 c -0.059,0.15 -0.142,0.309 -0.249,0.479 -0.104,0.169 -0.244,0.326 -0.42,0.469 -0.176,0.14 -0.396,0.257 -0.659,0.352 -0.26,0.091 -0.578,0.137 -0.952,0.137 m 0,-4.614 c -0.14,0 -0.272,0.024 -0.396,0.073 -0.12,0.046 -0.226,0.12 -0.317,0.225 -0.088,0.101 -0.16,0.233 -0.215,0.396 -0.055,0.163 -0.086,0.358 -0.093,0.586 h 2.051 c -0.026,-0.426 -0.129,-0.745 -0.308,-0.957 -0.179,-0.215 -0.42,-0.322 -0.723,-0.322" fill="#dcdcdc"/>
     <path d="m 560.19,119.9 c -0.007,-0.026 -0.015,-0.072 -0.024,-0.137 -0.007,-0.068 -0.015,-0.145 -0.024,-0.229 -0.007,-0.085 -0.013,-0.171 -0.019,-0.259 -0.003,-0.088 -0.005,-0.166 -0.005,-0.234 h -0.019 c -0.16,0.342 -0.382,0.588 -0.669,0.737 -0.283,0.146 -0.623,0.22 -1.02,0.22 -0.332,0 -0.62,-0.068 -0.864,-0.205 -0.241,-0.137 -0.441,-0.327 -0.601,-0.571 -0.156,-0.244 -0.273,-0.532 -0.352,-0.864 -0.075,-0.335 -0.112,-0.7 -0.112,-1.094 0,-0.4 0.039,-0.768 0.117,-1.104 0.081,-0.335 0.205,-0.623 0.371,-0.864 0.166,-0.244 0.376,-0.435 0.63,-0.571 0.257,-0.137 0.562,-0.205 0.913,-0.205 0.173,0 0.339,0.018 0.498,0.054 0.159,0.036 0.308,0.091 0.444,0.166 0.137,0.075 0.26,0.171 0.371,0.288 0.111,0.117 0.205,0.259 0.283,0.425 h 0.01 c 0,-0.033 -0.002,-0.08 -0.005,-0.142 0,-0.065 0,-0.138 0,-0.22 0,-0.081 -0.002,-0.166 -0.005,-0.254 0,-0.088 0,-0.173 0,-0.254 v -1.929 h 1.372 v 6.094 c 0,0.257 0.005,0.487 0.015,0.688 0.01,0.199 0.018,0.353 0.024,0.464 h -1.328 m -0.063,-2.671 c 0,-0.348 -0.033,-0.636 -0.098,-0.864 -0.065,-0.231 -0.151,-0.413 -0.259,-0.547 -0.104,-0.137 -0.225,-0.231 -0.361,-0.283 -0.133,-0.055 -0.27,-0.083 -0.41,-0.083 -0.176,0 -0.332,0.034 -0.469,0.103 -0.133,0.068 -0.247,0.176 -0.342,0.322 -0.091,0.146 -0.161,0.334 -0.21,0.562 -0.046,0.228 -0.068,0.503 -0.068,0.825 0,1.198 0.36,1.797 1.079,1.797 0.137,0 0.273,-0.029 0.41,-0.088 0.137,-0.059 0.259,-0.158 0.366,-0.298 0.107,-0.14 0.194,-0.327 0.259,-0.562 0.068,-0.238 0.103,-0.532 0.103,-0.884" fill="#dcdcdc"/>
     <path d="m 567.86,120 c -0.42,0 -0.788,-0.065 -1.104,-0.195 -0.313,-0.13 -0.573,-0.314 -0.781,-0.552 -0.208,-0.238 -0.365,-0.522 -0.469,-0.854 -0.104,-0.335 -0.156,-0.705 -0.156,-1.108 0,-0.439 0.057,-0.83 0.171,-1.172 0.114,-0.345 0.278,-0.635 0.493,-0.869 0.215,-0.238 0.479,-0.418 0.791,-0.542 0.316,-0.124 0.674,-0.186 1.074,-0.186 0.342,0 0.645,0.046 0.908,0.137 0.267,0.091 0.496,0.216 0.688,0.376 0.192,0.156 0.347,0.342 0.464,0.557 0.12,0.215 0.203,0.446 0.249,0.693 l -1.382,0.068 c -0.039,-0.27 -0.137,-0.485 -0.293,-0.645 -0.156,-0.163 -0.378,-0.244 -0.664,-0.244 -0.368,0 -0.636,0.151 -0.806,0.454 -0.169,0.303 -0.254,0.742 -0.254,1.318 0,1.217 0.36,1.826 1.079,1.826 0.26,0 0.479,-0.081 0.654,-0.244 0.176,-0.166 0.285,-0.412 0.327,-0.737 l 1.377,0.064 c -0.033,0.244 -0.107,0.479 -0.225,0.703 -0.114,0.221 -0.27,0.418 -0.469,0.591 -0.195,0.169 -0.433,0.306 -0.713,0.41 -0.28,0.101 -0.601,0.151 -0.962,0.151" fill="#dcdcdc"/>
     <path d="m 572.44,120 c -0.254,0 -0.482,-0.034 -0.684,-0.103 -0.199,-0.072 -0.368,-0.174 -0.508,-0.308 -0.14,-0.137 -0.247,-0.304 -0.322,-0.503 -0.075,-0.199 -0.112,-0.425 -0.112,-0.679 0,-0.313 0.054,-0.575 0.161,-0.786 0.111,-0.215 0.26,-0.387 0.449,-0.518 0.189,-0.133 0.41,-0.229 0.664,-0.288 0.254,-0.062 0.524,-0.094 0.811,-0.098 l 1.138,-0.019 v -0.269 c 0,-0.192 -0.018,-0.352 -0.054,-0.479 -0.033,-0.13 -0.081,-0.236 -0.146,-0.317 -0.065,-0.081 -0.146,-0.138 -0.244,-0.171 -0.094,-0.036 -0.203,-0.054 -0.327,-0.054 -0.114,0 -0.216,0.011 -0.308,0.034 -0.088,0.023 -0.164,0.064 -0.229,0.122 -0.065,0.055 -0.119,0.132 -0.161,0.229 -0.039,0.094 -0.067,0.215 -0.083,0.361 l -1.431,-0.068 c 0.039,-0.231 0.111,-0.441 0.215,-0.63 0.104,-0.192 0.247,-0.358 0.43,-0.498 0.186,-0.14 0.412,-0.247 0.679,-0.322 0.27,-0.078 0.586,-0.117 0.947,-0.117 0.329,0 0.622,0.041 0.879,0.122 0.257,0.081 0.475,0.203 0.654,0.366 0.179,0.16 0.316,0.356 0.41,0.591 0.094,0.234 0.142,0.506 0.142,0.815 v 1.924 c 0,0.124 0.005,0.234 0.015,0.332 0.013,0.098 0.034,0.181 0.063,0.249 0.033,0.065 0.077,0.116 0.132,0.151 0.059,0.032 0.133,0.049 0.225,0.049 0.104,0 0.205,-0.01 0.303,-0.029 v 0.742 c -0.081,0.019 -0.155,0.037 -0.22,0.054 -0.065,0.016 -0.13,0.029 -0.195,0.039 -0.065,0.01 -0.135,0.018 -0.21,0.024 -0.072,0.007 -0.156,0.01 -0.254,0.01 -0.345,0 -0.601,-0.085 -0.767,-0.254 -0.163,-0.169 -0.26,-0.418 -0.293,-0.747 h -0.029 c -0.182,0.329 -0.417,0.584 -0.703,0.767 -0.283,0.182 -0.628,0.273 -1.035,0.273 m 1.597,-2.544 -0.703,0.01 c -0.146,0.007 -0.286,0.019 -0.42,0.039 -0.13,0.016 -0.246,0.054 -0.347,0.112 -0.098,0.055 -0.176,0.137 -0.234,0.244 -0.059,0.107 -0.088,0.254 -0.088,0.439 0,0.251 0.057,0.438 0.171,0.562 0.117,0.12 0.272,0.181 0.464,0.181 0.176,0 0.335,-0.037 0.479,-0.112 0.143,-0.075 0.264,-0.173 0.361,-0.293 0.101,-0.124 0.179,-0.265 0.234,-0.425 0.055,-0.16 0.083,-0.322 0.083,-0.488 v -0.269" fill="#dcdcdc"/>
     <path d="m 576.79,119.9 v -7.246 h 1.372 v 7.246 h -1.372" fill="#dcdcdc"/>
     <path d="m 579.56,119.9 v -7.246 h 1.372 v 7.246 h -1.372" fill="#dcdcdc"/>
     <path d="m 582.31,119.9 v -1.489 h 1.411 v 1.489 h -1.411" fill="#dcdcdc"/>
     <path d="m 585.09,119.9 v -1.489 h 1.411 v 1.489 h -1.411" fill="#dcdcdc"/>
     <path d="m 587.86,119.9 v -1.489 h 1.411 v 1.489 h -1.411" fill="#dcdcdc"/>
    </g>
    <g>
     <path d="m 558.24,128.00612 c -0.771,0.0429 -1.333,0.68376 -1.816,1.21979 -0.467,0.60091 -0.943,1.25672 -1.074,2.02233 -10e-4,0.22859 0.284,0.33939 0.408,0.51706 0.471,0.42224 0.956,1.06607 0.656,1.72288 -0.422,0.83548 -1.218,1.38948 -1.832,2.07524 -0.498,0.49809 -1.135,1.17686 -1.912,0.88938 -0.576,-0.2186 -0.915,-0.74964 -1.365,-1.11098 -0.622,0.0479 -1.17,0.43321 -1.69,0.75164 -0.666,0.48212 -1.357,1.07505 -1.598,1.88957 -0.142,0.64882 0.54,0.99719 0.962,1.33757 1.054,0.76262 2.47,0.86344 3.675,0.42623 1.94,-0.68775 3.504,-2.11916 4.881,-3.60247 1.177,-1.33657 2.301,-2.90273 2.452,-4.73142 0.103,-1.28567 -0.553,-2.56035 -1.546,-3.35092 l -0.1,-0.0389 -0.102,-0.018" fill="#27ae60"/>
     <g>
      <path d="m 525.469,137.595 -0.889,-2.271 h -2.861 l -0.879,2.271 H 520 l 2.822,-7.168 h 0.698 l 2.808,7.168 h -0.859 m -1.147,-3.02 -0.83,-2.212 c -0.107,-0.28 -0.218,-0.623 -0.332,-1.03 -0.072,0.313 -0.174,0.656 -0.308,1.03 l -0.84,2.212 h 2.31" fill="#dcdcdc"/>
      <path d="m 534.009,137.595 v -3.481 c 0,-0.426 -0.091,-0.745 -0.273,-0.957 -0.182,-0.215 -0.466,-0.322 -0.85,-0.322 -0.505,0 -0.877,0.145 -1.118,0.435 -0.241,0.29 -0.361,0.736 -0.361,1.338 v 2.988 h -0.811 v -3.481 c 0,-0.426 -0.091,-0.745 -0.273,-0.957 -0.182,-0.215 -0.467,-0.322 -0.854,-0.322 -0.508,0 -0.881,0.153 -1.118,0.459 -0.234,0.303 -0.352,0.801 -0.352,1.494 v 2.808 h -0.811 v -5.352 h 0.659 l 0.132,0.732 h 0.039 c 0.153,-0.26 0.368,-0.464 0.645,-0.61 0.28,-0.146 0.592,-0.22 0.938,-0.22 0.837,0 1.383,0.303 1.641,0.908 h 0.039 c 0.159,-0.28 0.391,-0.501 0.693,-0.664 0.303,-0.163 0.648,-0.244 1.035,-0.244 0.605,0 1.058,0.156 1.357,0.469 0.303,0.309 0.454,0.806 0.454,1.489 v 3.491 h -0.811" fill="#dcdcdc"/>
      <path d="m 535.639,132.245 h 0.869 l 1.172,3.052 c 0.257,0.697 0.417,1.2 0.479,1.509 h 0.039 c 0.042,-0.166 0.13,-0.449 0.264,-0.85 0.137,-0.404 0.579,-1.641 1.328,-3.711 h 0.869 l -2.3,6.094 c -0.228,0.602 -0.495,1.029 -0.801,1.279 -0.303,0.254 -0.675,0.381 -1.118,0.381 -0.247,0 -0.492,-0.028 -0.732,-0.083 v -0.649 c 0.179,0.039 0.379,0.059 0.601,0.059 0.557,0 0.954,-0.313 1.191,-0.938 l 0.298,-0.762 -2.158,-5.381" fill="#dcdcdc"/>
     </g>
     <path d="m572 128c-2 0-2 0-2 2v6c0 2 0 2 2 2h3c2.659 2.669 2.655 2.669 5 0h3c2 0 2 0 2-2v-6c0-2 0-2-2-2h-11m1 3h7v1h-7v-1m2 2h7v1h-7v-1m-2 2h4v1h-4v-1" fill="#f39c12"/>
    </g>
   </g>
  </g>
  <g>
   <path d="m 509.00018,82.01014 a 17.00009,16.999963 0 0 1 -34.00018,0 17.00009,16.999963 0 1 1 34.00018,0" fill="#f1c40f" fill-rule="evenodd"/>
   <g>
    <g>
     <path d="m 524.729,69.355 c 0,0.446 -0.135,0.825 -0.405,1.138 -0.27,0.313 -0.649,0.527 -1.138,0.645 v 0.029 c 0.576,0.072 1.012,0.247 1.309,0.527 0.296,0.277 0.444,0.651 0.444,1.123 0,0.687 -0.249,1.222 -0.747,1.606 -0.498,0.381 -1.209,0.571 -2.134,0.571 -0.775,0 -1.462,-0.129 -2.061,-0.386 v -1.284 c 0.277,0.14 0.581,0.254 0.913,0.342 0.332,0.088 0.661,0.132 0.986,0.132 0.498,0 0.866,-0.085 1.104,-0.254 0.238,-0.169 0.356,-0.441 0.356,-0.815 0,-0.335 -0.137,-0.573 -0.41,-0.713 -0.273,-0.14 -0.71,-0.21 -1.309,-0.21 h -0.542 v -1.157 h 0.552 c 0.553,0 0.957,-0.072 1.211,-0.215 0.257,-0.146 0.386,-0.396 0.386,-0.747 0,-0.54 -0.339,-0.811 -1.016,-0.811 -0.234,0 -0.474,0.039 -0.718,0.117 -0.241,0.078 -0.509,0.213 -0.806,0.405 l -0.698,-1.04 c 0.651,-0.469 1.427,-0.703 2.329,-0.703 0.739,0 1.322,0.15 1.748,0.449 0.43,0.299 0.645,0.716 0.645,1.25" fill="#dcdcdc"/>
     <path d="m 533.739,74.905 h -1.489 v -3.188 c 0,-0.394 -0.07,-0.688 -0.21,-0.884 -0.14,-0.199 -0.363,-0.298 -0.669,-0.298 -0.417,0 -0.718,0.14 -0.903,0.42 -0.186,0.277 -0.278,0.737 -0.278,1.382 v 2.568 h -1.489 v -5.459 h 1.138 l 0.2,0.698 h 0.083 c 0.166,-0.264 0.394,-0.462 0.684,-0.596 0.293,-0.137 0.625,-0.205 0.996,-0.205 0.635,0 1.117,0.173 1.445,0.518 0.329,0.342 0.493,0.837 0.493,1.484 v 3.56" fill="#dcdcdc"/>
     <path d="m 537.549,70.395 c -0.316,0 -0.563,0.101 -0.742,0.303 -0.179,0.199 -0.282,0.482 -0.308,0.85 h 2.09 c -0.007,-0.368 -0.103,-0.651 -0.288,-0.85 -0.186,-0.202 -0.436,-0.303 -0.752,-0.303 m 0.21,4.6 c -0.879,0 -1.566,-0.243 -2.061,-0.728 -0.495,-0.485 -0.742,-1.172 -0.742,-2.061 0,-0.915 0.228,-1.621 0.684,-2.119 0.459,-0.501 1.092,-0.752 1.899,-0.752 0.771,0 1.372,0.22 1.802,0.659 0.43,0.439 0.645,1.047 0.645,1.821 v 0.723 h -3.52 c 0.016,0.423 0.142,0.754 0.376,0.991 0.234,0.238 0.563,0.356 0.986,0.356 0.329,0 0.64,-0.034 0.933,-0.103 0.293,-0.068 0.599,-0.177 0.918,-0.327 v 1.152 c -0.26,0.13 -0.539,0.226 -0.835,0.288 -0.296,0.065 -0.658,0.098 -1.084,0.098" fill="#dcdcdc"/>
     <path d="m 545.689,74.905 -0.42,-1.909 -0.566,-2.412 h -0.034 l -0.996,4.321 h -1.602 l -1.553,-5.459 h 1.484 l 0.63,2.417 c 0.101,0.433 0.203,1.03 0.308,1.792 h 0.029 c 0.013,-0.247 0.07,-0.64 0.171,-1.177 l 0.078,-0.415 0.674,-2.617 h 1.641 l 0.64,2.617 c 0.013,0.072 0.033,0.177 0.059,0.317 0.029,0.14 0.057,0.29 0.083,0.449 0.026,0.156 0.049,0.311 0.068,0.464 0.023,0.15 0.036,0.27 0.039,0.361 h 0.029 c 0.029,-0.234 0.081,-0.555 0.156,-0.962 0.075,-0.41 0.129,-0.687 0.161,-0.83 l 0.654,-2.417 h 1.46 l -1.572,5.459 h -1.621" fill="#dcdcdc"/>
     <path d="m 557.239,74.905 h -1.489 v -3.188 c 0,-0.394 -0.067,-0.688 -0.2,-0.884 -0.13,-0.199 -0.337,-0.298 -0.62,-0.298 -0.381,0 -0.658,0.14 -0.83,0.42 -0.173,0.28 -0.259,0.741 -0.259,1.382 v 2.568 h -1.489 v -5.459 h 1.138 l 0.2,0.698 h 0.083 c 0.146,-0.251 0.358,-0.446 0.635,-0.586 0.277,-0.143 0.594,-0.215 0.952,-0.215 0.817,0 1.37,0.267 1.66,0.801 h 0.132 c 0.146,-0.254 0.361,-0.451 0.645,-0.591 0.286,-0.14 0.609,-0.21 0.967,-0.21 0.618,0 1.086,0.16 1.401,0.479 0.319,0.316 0.479,0.824 0.479,1.523 v 3.56 h -1.494 v -3.188 c 0,-0.394 -0.067,-0.688 -0.2,-0.884 -0.13,-0.199 -0.337,-0.298 -0.62,-0.298 -0.365,0 -0.638,0.13 -0.82,0.391 -0.179,0.26 -0.269,0.674 -0.269,1.24 v 2.739" fill="#dcdcdc"/>
     <path d="m 565.649,74.905 -0.288,-0.742 h -0.039 c -0.251,0.316 -0.509,0.535 -0.776,0.659 -0.264,0.12 -0.609,0.181 -1.035,0.181 -0.524,0 -0.938,-0.15 -1.24,-0.449 -0.299,-0.299 -0.449,-0.726 -0.449,-1.279 0,-0.579 0.202,-1.01 0.605,-1.279 0.407,-0.277 1.019,-0.43 1.836,-0.459 l 0.947,-0.029 v -0.239 c 0,-0.553 -0.283,-0.83 -0.85,-0.83 -0.436,0 -0.949,0.132 -1.538,0.396 l -0.493,-1.01 c 0.628,-0.329 1.325,-0.493 2.09,-0.493 0.732,0 1.294,0.16 1.685,0.479 0.391,0.319 0.586,0.804 0.586,1.455 v 3.638 h -1.04 m -0.439,-2.529 -0.576,0.02 c -0.433,0.013 -0.755,0.091 -0.967,0.234 -0.212,0.143 -0.317,0.361 -0.317,0.654 0,0.42 0.241,0.63 0.723,0.63 0.345,0 0.62,-0.099 0.825,-0.298 0.208,-0.199 0.313,-0.462 0.313,-0.791 v -0.449" fill="#dcdcdc"/>
     <path d="m 568.149,68.035 c 0,-0.485 0.27,-0.728 0.811,-0.728 0.54,0 0.811,0.243 0.811,0.728 0,0.231 -0.068,0.412 -0.205,0.542 -0.133,0.127 -0.335,0.19 -0.605,0.19 -0.54,0 -0.811,-0.244 -0.811,-0.732 m 1.553,6.87 h -1.489 v -5.459 h 1.489 v 5.459" fill="#dcdcdc"/>
     <path d="m 572.749,74.905 h -1.489 v -7.598 h 1.489 v 7.598" fill="#dcdcdc"/>
     <path d="m 578.119,73.285 c 0,0.56 -0.195,0.986 -0.586,1.279 -0.387,0.293 -0.968,0.439 -1.743,0.439 -0.397,0 -0.736,-0.028 -1.016,-0.083 -0.28,-0.052 -0.542,-0.13 -0.786,-0.234 v -1.23 c 0.277,0.13 0.588,0.239 0.933,0.327 0.348,0.088 0.654,0.132 0.918,0.132 0.54,0 0.811,-0.156 0.811,-0.469 0,-0.117 -0.036,-0.212 -0.107,-0.283 -0.072,-0.075 -0.195,-0.158 -0.371,-0.249 -0.176,-0.094 -0.41,-0.203 -0.703,-0.327 -0.42,-0.176 -0.729,-0.339 -0.928,-0.488 -0.195,-0.15 -0.339,-0.321 -0.43,-0.513 -0.088,-0.195 -0.132,-0.435 -0.132,-0.718 0,-0.485 0.187,-0.859 0.562,-1.123 0.378,-0.267 0.911,-0.4 1.602,-0.4 0.658,0 1.297,0.143 1.919,0.43 l -0.449,1.074 c -0.273,-0.117 -0.529,-0.213 -0.767,-0.288 -0.238,-0.075 -0.48,-0.112 -0.728,-0.112 -0.439,0 -0.659,0.119 -0.659,0.356 0,0.133 0.07,0.249 0.21,0.347 0.143,0.098 0.454,0.243 0.933,0.435 0.426,0.173 0.739,0.334 0.938,0.483 0.199,0.15 0.345,0.322 0.439,0.518 0.094,0.195 0.142,0.428 0.142,0.698" fill="#dcdcdc"/>
    </g>
    <g>
     <path d="m 521.18347,95.001588 h 13.63111 c 1.18346,0 1.18346,0 1.18346,-1.144489 V 83.99961 L 527.99725,79 l -8.00079,4.99961 v 9.857489 c 0,1.144489 0,1.144489 1.18346,1.144489" fill="#268bd2"/>
     <path d="m 521.18347,95.001588 h 13.63111 c 1.18346,0 1.18346,0 1.18346,-1.144489 V 83.99961 L 527.99725,79 l -8.00079,4.99961 v 9.857489 c 0,1.144489 0,1.144489 1.18346,1.144489" fill-opacity="0.1"/>
     <path d="m 521.99843,80.998427 v 12.001191 h 12.00119 V 80.998427 z" fill="#ffffff"/>
     <path d="m 520.99921,95.001588 h 13.99962 c 0.99921,0 0.99921,0 0.99921,-0.999213 v -9.000008 l -16.00158,9.000008 c 0,0.999213 0,0.999213 0.99921,0.999213" fill="#268bd2"/>
     <path d="m 534.99883,95.001588 h -13.99962 c -0.99921,0 -0.99921,0 -0.99921,-0.999213 v -9.000008 l 16.00159,9.000008 c 0,0.999213 0,0.999213 -0.99922,0.999213" fill="#268bd2"/>
     <path d="m 534.81458,95.001588 h -13.63111 c -1.18347,0 -1.18347,0 -1.18347,-1.123229 v -8.875992 l 16.00159,8.875992 c 0,1.123229 0,1.123229 -1.18347,1.123229" fill="#ffffff" fill-opacity="0.1"/>
    </g>
    <g>
     <path d="m 552.06547,83.03346 c -0.15694,0 -0.38289,0.13913 -0.66115,0.41739 l -5.5652,4.45216 c -1.11304,1.11304 -1.11304,1.11304 0,2.22608 l 5.5652,4.45216 c 0.83478,0.83478 1.06073,0.41739 1.11304,-1.25217 0.0178,-0.55652 0,-1.25217 0,-2.08695 0.0122,0 0.0234,0 0.0345,0 5.5307,0 7.79128,-7.339386 7.75567,-11.82605 -2.19158,2.260584 -4.45216,7.37389 -7.79128,7.304882 0.001,-0.79805 0.0167,-1.479231 0,-2.017942 -0.0345,-1.11304 -0.13913,-1.66956 -0.4519,-1.66956" fill="#859900" fill-rule="evenodd"/>
     <path d="m 552.06547,83.03346 c -0.15694,0 -0.38289,0.13913 -0.66115,0.41739 l -5.5652,4.45216 c -1.11304,1.11304 -1.11304,1.11304 0,2.22608 l 5.5652,4.45216 c 0.83478,0.83478 1.06073,0.41739 1.11304,-1.25217 0.0178,-0.55652 0,-1.25217 0,-2.08695 0.0122,0 0.0234,0 0.0345,0 5.5307,0 7.79128,-7.339386 7.75567,-11.82605 -2.19158,2.260584 -4.45216,7.37389 -7.79128,7.304882 0.001,-0.79805 0.0167,-1.479231 0,-2.017942 -0.0345,-1.11304 -0.13913,-1.66956 -0.4519,-1.66956" fill-rule="evenodd" fill-opacity="0.1"/>
     <path d="m 552.06547,78.99869 c -0.15694,0 -0.38289,0.13913 -0.66115,0.41739 l -5.5652,4.45216 c -1.11304,1.11304 -1.11304,1.11304 0,2.22608 l 5.5652,4.45216 c 0.83478,0.83478 1.06073,0.41739 1.11304,-1.25217 0.0178,-0.55652 0,-1.25217 0,-2.08695 0.0122,0 0.0234,0 0.0345,0 5.5307,0 7.75678,-3.33912 7.72228,-7.824671 -2.19158,2.260584 -4.41766,3.372511 -7.75678,3.304616 0.001,-0.79805 0.0167,-1.479231 0,-2.017942 -0.0345,-1.11304 -0.13913,-1.66956 -0.45189,-1.66956" fill="#859900" fill-rule="evenodd"/>
    </g>
   </g>
  </g>
  <g>
   <path d="m 509.00018,172.01014 a 17.00009,16.999963 0 0 1 -34.00018,0 17.00009,16.999963 0 1 1 34.00018,0" fill="#9b59b6" fill-rule="evenodd"/>
   <g>
    <g>
     <path d="m 520.002,157.96 h 2.222 c 1.012,0 1.746,0.145 2.202,0.435 0.459,0.286 0.688,0.744 0.688,1.372 0,0.426 -0.101,0.776 -0.303,1.05 -0.199,0.273 -0.464,0.438 -0.796,0.493 v 0.049 c 0.452,0.101 0.778,0.29 0.977,0.566 0.202,0.277 0.303,0.645 0.303,1.104 0,0.651 -0.236,1.159 -0.708,1.523 -0.469,0.365 -1.107,0.547 -1.914,0.547 h -2.671 v -7.139 m 1.514,2.827 h 0.879 c 0.41,0 0.706,-0.064 0.889,-0.19 0.186,-0.127 0.278,-0.337 0.278,-0.63 0,-0.273 -0.101,-0.469 -0.303,-0.586 -0.199,-0.12 -0.514,-0.181 -0.947,-0.181 h -0.796 v 1.587 m 0,1.201 v 1.86 h 0.986 c 0.417,0 0.724,-0.08 0.923,-0.239 0.199,-0.16 0.298,-0.404 0.298,-0.732 0,-0.592 -0.423,-0.889 -1.27,-0.889 h -0.938" fill="#dcdcdc"/>
     <path d="m 529.652,159.54 c 0.202,0 0.369,0.015 0.503,0.044 l -0.112,1.396 c -0.12,-0.033 -0.267,-0.049 -0.439,-0.049 -0.475,0 -0.846,0.122 -1.113,0.366 -0.264,0.244 -0.396,0.586 -0.396,1.025 v 2.778 h -1.489 v -5.459 h 1.128 l 0.22,0.918 h 0.073 c 0.169,-0.306 0.397,-0.552 0.684,-0.737 0.29,-0.189 0.604,-0.283 0.942,-0.283" fill="#dcdcdc"/>
     <path d="m 532.342,162.36 c 0,0.54 0.088,0.949 0.264,1.226 0.179,0.277 0.469,0.415 0.869,0.415 0.397,0 0.682,-0.137 0.854,-0.41 0.176,-0.277 0.264,-0.687 0.264,-1.23 0,-0.54 -0.088,-0.946 -0.264,-1.216 -0.176,-0.27 -0.464,-0.405 -0.864,-0.405 -0.397,0 -0.684,0.135 -0.859,0.405 -0.176,0.267 -0.264,0.672 -0.264,1.216 m 3.774,0 c 0,0.889 -0.234,1.584 -0.703,2.085 -0.469,0.501 -1.121,0.752 -1.958,0.752 -0.524,0 -0.986,-0.114 -1.387,-0.342 -0.4,-0.231 -0.708,-0.562 -0.923,-0.991 -0.215,-0.43 -0.322,-0.931 -0.322,-1.504 0,-0.892 0.233,-1.585 0.698,-2.08 0.465,-0.495 1.12,-0.742 1.963,-0.742 0.524,0 0.986,0.114 1.387,0.342 0.4,0.228 0.708,0.555 0.923,0.981 0.215,0.426 0.322,0.926 0.322,1.499" fill="#dcdcdc"/>
     <path d="m 538.772,162.13 0.649,-0.83 1.528,-1.66 h 1.68 l -2.168,2.368 2.3,3.091 h -1.719 l -1.572,-2.212 -0.64,0.513 v 1.699 h -1.489 v -7.598 h 1.489 v 3.389 l -0.078,1.24 h 0.019" fill="#dcdcdc"/>
     <path d="m 545.812,160.6 c -0.316,0 -0.563,0.101 -0.742,0.303 -0.179,0.199 -0.282,0.482 -0.308,0.85 h 2.09 c -0.007,-0.368 -0.103,-0.651 -0.288,-0.85 -0.186,-0.202 -0.436,-0.303 -0.752,-0.303 m 0.21,4.6 c -0.879,0 -1.566,-0.243 -2.061,-0.728 -0.495,-0.485 -0.742,-1.172 -0.742,-2.061 0,-0.915 0.228,-1.621 0.684,-2.119 0.459,-0.501 1.092,-0.752 1.899,-0.752 0.771,0 1.372,0.22 1.802,0.659 0.43,0.439 0.645,1.047 0.645,1.821 v 0.723 h -3.521 c 0.016,0.423 0.142,0.754 0.376,0.991 0.234,0.238 0.563,0.356 0.986,0.356 0.329,0 0.64,-0.034 0.933,-0.103 0.293,-0.068 0.599,-0.177 0.918,-0.327 v 1.152 c -0.26,0.13 -0.539,0.226 -0.835,0.288 -0.296,0.065 -0.658,0.098 -1.084,0.098" fill="#dcdcdc"/>
     <path d="m 554.512,165.1 h -1.489 v -3.188 c 0,-0.394 -0.07,-0.688 -0.21,-0.884 -0.14,-0.199 -0.363,-0.298 -0.669,-0.298 -0.417,0 -0.718,0.14 -0.903,0.42 -0.186,0.277 -0.278,0.737 -0.278,1.382 v 2.568 h -1.489 v -5.459 h 1.138 l 0.2,0.698 h 0.083 c 0.166,-0.264 0.394,-0.462 0.684,-0.596 0.293,-0.137 0.625,-0.205 0.996,-0.205 0.635,0 1.117,0.173 1.445,0.518 0.329,0.342 0.493,0.837 0.493,1.484 v 3.56" fill="#dcdcdc"/>
     <path d="m 562.122,165.1 -0.288,-0.742 h -0.039 c -0.251,0.316 -0.509,0.535 -0.776,0.659 -0.264,0.12 -0.609,0.181 -1.035,0.181 -0.524,0 -0.938,-0.15 -1.24,-0.449 -0.299,-0.299 -0.449,-0.726 -0.449,-1.279 0,-0.579 0.202,-1.01 0.605,-1.279 0.407,-0.277 1.019,-0.43 1.836,-0.459 l 0.947,-0.029 v -0.239 c 0,-0.553 -0.283,-0.83 -0.85,-0.83 -0.436,0 -0.949,0.132 -1.538,0.396 l -0.493,-1.01 c 0.628,-0.329 1.325,-0.493 2.09,-0.493 0.732,0 1.294,0.16 1.685,0.479 0.391,0.319 0.586,0.804 0.586,1.455 v 3.638 h -1.04 m -0.439,-2.529 -0.576,0.019 c -0.433,0.013 -0.755,0.091 -0.967,0.234 -0.212,0.143 -0.317,0.361 -0.317,0.654 0,0.42 0.241,0.63 0.723,0.63 0.345,0 0.62,-0.099 0.825,-0.298 0.208,-0.199 0.313,-0.462 0.313,-0.791 v -0.449" fill="#dcdcdc"/>
     <path d="m 569.722,165.1 h -1.489 v -3.188 c 0,-0.394 -0.07,-0.688 -0.21,-0.884 -0.14,-0.199 -0.363,-0.298 -0.669,-0.298 -0.417,0 -0.718,0.14 -0.903,0.42 -0.186,0.277 -0.278,0.737 -0.278,1.382 v 2.568 h -1.489 v -5.459 h 1.138 l 0.2,0.698 h 0.083 c 0.166,-0.264 0.394,-0.462 0.684,-0.596 0.293,-0.137 0.625,-0.205 0.996,-0.205 0.635,0 1.117,0.173 1.445,0.518 0.329,0.342 0.493,0.837 0.493,1.484 v 3.56" fill="#dcdcdc"/>
     <path d="m 576.022,159.64 v 0.757 l -0.854,0.22 c 0.156,0.244 0.234,0.518 0.234,0.82 0,0.586 -0.205,1.043 -0.615,1.372 -0.407,0.326 -0.973,0.488 -1.699,0.488 l -0.269,-0.015 -0.22,-0.024 c -0.153,0.117 -0.23,0.247 -0.229,0.391 0,0.215 0.273,0.322 0.82,0.322 h 0.928 c 0.599,0 1.055,0.129 1.367,0.386 0.316,0.257 0.474,0.635 0.474,1.133 0,0.638 -0.267,1.133 -0.801,1.484 -0.531,0.352 -1.294,0.527 -2.29,0.527 -0.762,0 -1.344,-0.133 -1.748,-0.4 -0.4,-0.264 -0.601,-0.635 -0.601,-1.113 0,-0.329 0.103,-0.604 0.308,-0.825 0.205,-0.221 0.506,-0.379 0.903,-0.474 -0.153,-0.065 -0.286,-0.171 -0.4,-0.317 -0.114,-0.15 -0.171,-0.308 -0.171,-0.474 0,-0.208 0.06,-0.381 0.181,-0.518 0.12,-0.14 0.295,-0.277 0.522,-0.41 -0.286,-0.124 -0.514,-0.322 -0.684,-0.596 -0.166,-0.273 -0.249,-0.596 -0.249,-0.967 0,-0.596 0.194,-1.056 0.581,-1.382 0.387,-0.326 0.941,-0.488 1.66,-0.488 0.153,0 0.334,0.015 0.542,0.044 0.212,0.026 0.347,0.046 0.405,0.059 h 1.904 m -4.214,6.23 c 0,0.205 0.098,0.366 0.293,0.483 0.199,0.117 0.475,0.176 0.83,0.176 0.534,0 0.952,-0.073 1.255,-0.22 0.303,-0.146 0.454,-0.347 0.454,-0.601 0,-0.205 -0.09,-0.347 -0.269,-0.425 -0.179,-0.078 -0.456,-0.117 -0.83,-0.117 h -0.771 c -0.273,0 -0.503,0.064 -0.688,0.19 -0.182,0.13 -0.273,0.301 -0.273,0.513 m 0.542,-4.443 c 0,0.296 0.067,0.531 0.2,0.703 0.137,0.173 0.343,0.259 0.62,0.259 0.28,0 0.485,-0.086 0.615,-0.259 0.13,-0.173 0.195,-0.407 0.195,-0.703 0,-0.658 -0.27,-0.986 -0.811,-0.986 -0.547,0 -0.82,0.329 -0.82,0.986" fill="#dcdcdc"/>
     <path d="m 579.172,160.6 c -0.316,0 -0.563,0.101 -0.742,0.303 -0.179,0.199 -0.282,0.482 -0.308,0.85 h 2.09 c -0.007,-0.368 -0.103,-0.651 -0.288,-0.85 -0.186,-0.202 -0.436,-0.303 -0.752,-0.303 m 0.21,4.6 c -0.879,0 -1.566,-0.243 -2.061,-0.728 -0.495,-0.485 -0.742,-1.172 -0.742,-2.061 0,-0.915 0.228,-1.621 0.684,-2.119 0.459,-0.501 1.092,-0.752 1.899,-0.752 0.771,0 1.372,0.22 1.802,0.659 0.43,0.439 0.645,1.047 0.645,1.821 v 0.723 h -3.521 c 0.016,0.423 0.142,0.754 0.376,0.991 0.234,0.238 0.563,0.356 0.986,0.356 0.329,0 0.64,-0.034 0.933,-0.103 0.293,-0.068 0.599,-0.177 0.918,-0.327 v 1.152 c -0.26,0.13 -0.539,0.226 -0.835,0.288 -0.296,0.065 -0.658,0.098 -1.084,0.098" fill="#dcdcdc"/>
     <path d="m 584.322,165.1 h -1.489 v -7.598 h 1.489 v 7.598" fill="#dcdcdc"/>
    </g>
    <g>
     <g>
      <use transform="matrix(-1,0,0,1,535,170)" xlink:href="#0" width="640" height="480" fill="#268bd2"/>
      <use transform="matrix(-1,0,0,1,535,170)" xlink:href="#0" width="640" height="480" fill-opacity="0.1"/>
      <path id="1" d="m 529,171 v 14 l -9,-7 z" fill="#268bd2"/>
      <path id="2" d="m 523,171 h -3 v 14 h 3 z" fill="#268bd2"/>
     </g>
     <g>
      <path d="m 540,171 h 6 v 14 h -6 z" fill="#268bd2"/>
      <path d="m 548,171 h 6 v 14 h -6 z" fill="#268bd2"/>
     </g>
     <g>
      <use transform="translate(559,170)" xlink:href="#0" width="640" height="480" fill="#268bd2"/>
      <use transform="translate(559,170)" xlink:href="#0" width="640" height="480" fill-opacity="0.1"/>
      <use height="480" width="640" xlink:href="#0" transform="translate(559,170)" fill-opacity="0.1"/>
      <path d="m 565,171 v 14 l 9,-7 z" fill="#268bd2"/>
      <path d="m 571,171 h 3 v 14 h -3 z" fill="#268bd2"/>
     </g>
    </g>
   </g>
  </g>
 </g>
</svg>
