<svg xmlns="http://www.w3.org/2000/svg" viewBox="0 0 640 480" width="640" height="480">
 <rect height="480" rx="2.605" width="640" fill="#2d2d2d" fill-rule="evenodd"/>
 <g>
  <path d="m 40,480 c 0,-22.09 -17.909,-40 -40,-40 -22.09,0 -40,17.909 -40,40 0,22.09 17.909,40 40,40 22.09,0 40,-17.909 40,-40" opacity="0.3" fill="#f9f9f9" fill-rule="evenodd"/>
  <path d="m 20,480 c 0,-11.05 -8.954,-20 -20,-20 -11.05,0 -20,8.954 -20,20 0,11.05 8.954,20 20,20 11.05,0 20,-8.954 20,-20" opacity="0.4" fill="#f9f9f9" fill-rule="evenodd"/>
 </g>
 <g>
  <rect width="200" x="90" y="110" rx="2.447" height="120" stroke-opacity="0.5" fill="#d64937" fill-rule="evenodd" stroke="#f9f9f9" stroke-width="4"/>
  <g>
   <rect height="40" rx="2.614" y="140" x="120" width="80" fill="#dededd"/>
   <path d="m 122.63,140 c -1.448,0 -2.625,1.177 -2.625,2.625 V 149 h 80 v -6.375 c 0,-1.448 -1.177,-2.625 -2.625,-2.625 h -74.75" fill="#2d2d2d"/>
   <path d="m 140,149 v 31 h 57.38 c 1.448,0 2.625,-1.177 2.625,-2.625 V 149 h -60" fill="#f9f9f9"/>
  </g>
 </g>
 <g>
  <rect width="200" x="350" y="110" rx="2.447" height="120" fill="#d64937" fill-rule="evenodd"/>
  <g>
   <rect width="60" x="460" y="130" rx="1.961" height="80" fill="#f9f9f9"/>
   <path d="m 461.97,130 c -1.086,0 -1.969,0.882 -1.969,1.969 v 7.03 h 60 v -7.03 c 0,-1.086 -0.882,-1.969 -1.969,-1.969 h -56.06" fill="#2d2d2d"/>
  </g>
  <g>
   <rect width="60" x="380" y="130" rx="1.961" height="80" fill="#f9f9f9"/>
   <path d="m 381.97,130 c -1.086,0 -1.969,0.882 -1.969,1.969 v 7.03 h 60 v -7.03 c 0,-1.086 -0.882,-1.969 -1.969,-1.969 h -56.06" fill="#2d2d2d"/>
  </g>
 </g>
 <g>
  <rect width="200" x="220" y="280" rx="2.447" height="120" fill="#d64937" fill-rule="evenodd"/>
  <path fill="#f9f9f9" fill-opacity="0.5" d="m310 300h20v30h30v20h-30v30h-20v-30h-30v-20h30z"/>
 </g>
 <g>
  <path d="m 19.999898,14.99996 a 4.999968,4.999989 0 0 1 -9.999936,0 4.999968,4.999989 0 1 1 9.999936,0" fill="#dcdcdc" fill-rule="evenodd" fill-opacity="0.941"/>
  <path d="m 33.999898,14.99996 a 4.999968,4.999989 0 1 1 -9.999936,0 4.999968,4.999989 0 1 1 9.999936,0" fill="#dcdcdc" fill-rule="evenodd" fill-opacity="0.941"/>
  <path d="m 47.999898,14.99996 a 4.999968,4.999989 0 1 1 -9.999936,0 4.999968,4.999989 0 1 1 9.999936,0" fill="#dcdcdc" fill-rule="evenodd" fill-opacity="0.941"/>
  <path d="m 630,12 h -10 l 5,6 z" fill="#dcdcdc"/>
  <path d="m 601,10 v 10 l -5,-3 h -2 v -4 h 2 z" fill="#dcdcdc"/>
  <path d="m 603,18 v 2 h 2 v -2 z" fill="#dcdcdc"/>
  <path d="m 603,14 v 2 h 2 v -2 z" fill="#dcdcdc"/>
  <path d="m 603,10 v 2 h 2 v -2 z" fill="#dcdcdc"/>
  <path d="m 570,10 1.5,2 h 12 l 1.5,-2 h -15 m 3,4 1.5,2 h 6 l 1.5,-2 h -9 m 3,4 1.5,2 1.5,-2 h -3" fill="#dcdcdc"/>
  <path d="m 294.5,19.821 h -1.974 v -7.963 h -2.528 v -1.706 h 7.03 v 1.706 H 294.5 v 7.963" fill="#dcdcdc"/>
  <path d="m 303.37,19.821 -0.261,-0.946 h -0.102 c -0.208,0.344 -0.503,0.611 -0.885,0.8 -0.382,0.185 -0.817,0.278 -1.305,0.278 -0.836,0 -1.467,-0.231 -1.891,-0.694 -0.424,-0.467 -0.637,-1.138 -0.637,-2.01 v -4.821 h 1.942 v 4.319 c 0,0.534 0.091,0.935 0.274,1.204 0.183,0.265 0.473,0.397 0.872,0.397 0.543,0 0.936,-0.187 1.178,-0.562 0.242,-0.379 0.363,-1.01 0.363,-1.878 v -3.479 h 1.942 v 7.394 h -1.49" fill="#dcdcdc"/>
  <path d="m 309.85,13.724 c -0.412,0 -0.734,0.137 -0.968,0.41 -0.233,0.269 -0.367,0.653 -0.401,1.151 h 2.725 c -0.009,-0.498 -0.134,-0.882 -0.376,-1.151 -0.242,-0.273 -0.569,-0.41 -0.981,-0.41 m 0.274,6.23 c -1.146,0 -2.042,-0.328 -2.687,-0.985 -0.645,-0.657 -0.968,-1.587 -0.968,-2.791 0,-1.239 0.297,-2.196 0.891,-2.87 0.599,-0.679 1.424,-1.019 2.477,-1.019 1.01,0 1.789,0.298 2.35,0.893 0.56,0.595 0.841,1.418 0.841,2.467 v 0.979 h -4.591 c 0.021,0.573 0.185,1.021 0.49,1.343 0.306,0.322 0.734,0.483 1.286,0.483 0.429,0 0.834,-0.046 1.216,-0.139 0.382,-0.093 0.781,-0.24 1.197,-0.443 v 1.561 c -0.34,0.176 -0.703,0.306 -1.089,0.39 -0.386,0.088 -0.857,0.132 -1.414,0.132" fill="#dcdcdc"/>
  <path d="m 323.97,14.987 c 0,1.689 -0.267,2.939 -0.802,3.75 -0.531,0.811 -1.35,1.217 -2.458,1.217 -1.074,0 -1.885,-0.419 -2.432,-1.257 -0.543,-0.838 -0.815,-2.075 -0.815,-3.71 0,-1.706 0.265,-2.963 0.796,-3.77 0.531,-0.811 1.348,-1.217 2.451,-1.217 1.074,0 1.885,0.423 2.432,1.27 0.552,0.847 0.828,2.086 0.828,3.717 m -4.553,0 c 0,1.186 0.098,2.037 0.293,2.553 0.2,0.511 0.533,0.767 1,0.767 0.458,0 0.79,-0.26 0.993,-0.78 0.204,-0.52 0.306,-1.367 0.306,-2.54 0,-1.186 -0.104,-2.037 -0.312,-2.553 -0.204,-0.52 -0.533,-0.78 -0.987,-0.78 -0.463,0 -0.794,0.26 -0.993,0.78 -0.2,0.516 -0.299,1.367 -0.299,2.553" fill="#dcdcdc"/>
  <path d="m 329.82,19.821 h -1.968 v -5.595 l 0.019,-0.919 0.032,-1.01 c -0.327,0.34 -0.554,0.562 -0.681,0.668 l -1.07,0.893 -0.949,-1.23 2.999,-2.48 h 1.617 v 9.669" fill="#dcdcdc"/>
  <path d="m 332.61,18.876 c 0,-0.37 0.096,-0.65 0.287,-0.84 0.191,-0.19 0.469,-0.284 0.834,-0.284 0.352,0 0.624,0.097 0.815,0.291 0.195,0.194 0.293,0.472 0.293,0.833 0,0.348 -0.098,0.624 -0.293,0.827 -0.195,0.198 -0.467,0.298 -0.815,0.298 -0.357,0 -0.632,-0.097 -0.828,-0.291 -0.195,-0.198 -0.293,-0.476 -0.293,-0.833 m 0,-5.463 c 0,-0.37 0.096,-0.65 0.287,-0.84 0.191,-0.19 0.469,-0.284 0.834,-0.284 0.352,0 0.624,0.097 0.815,0.291 0.195,0.194 0.293,0.472 0.293,0.833 0,0.357 -0.1,0.635 -0.299,0.833 -0.195,0.194 -0.465,0.291 -0.809,0.291 -0.357,0 -0.632,-0.097 -0.828,-0.291 -0.195,-0.194 -0.293,-0.472 -0.293,-0.833" fill="#dcdcdc"/>
  <path d="m 342.56,14.987 c 0,1.689 -0.267,2.939 -0.802,3.75 -0.531,0.811 -1.35,1.217 -2.458,1.217 -1.074,0 -1.885,-0.419 -2.432,-1.257 -0.543,-0.838 -0.815,-2.075 -0.815,-3.71 0,-1.706 0.265,-2.963 0.796,-3.77 C 337.38,10.406 338.197,10 339.3,10 c 1.074,0 1.885,0.423 2.432,1.27 0.552,0.847 0.828,2.086 0.828,3.717 m -4.553,0 c 0,1.186 0.098,2.037 0.293,2.553 0.2,0.511 0.533,0.767 1,0.767 0.458,0 0.79,-0.26 0.993,-0.78 0.204,-0.52 0.306,-1.367 0.306,-2.54 0,-1.186 -0.104,-2.037 -0.312,-2.553 -0.204,-0.52 -0.533,-0.78 -0.987,-0.78 -0.463,0 -0.794,0.26 -0.993,0.78 -0.2,0.516 -0.299,1.367 -0.299,2.553" fill="#dcdcdc"/>
  <path d="m 350,14.987 c 0,1.689 -0.267,2.939 -0.802,3.75 -0.531,0.811 -1.35,1.217 -2.458,1.217 -1.074,0 -1.885,-0.419 -2.432,-1.257 -0.543,-0.838 -0.815,-2.075 -0.815,-3.71 0,-1.706 0.265,-2.963 0.796,-3.77 0.531,-0.811 1.348,-1.217 2.451,-1.217 1.074,0 1.885,0.423 2.432,1.27 0.552,0.847 0.828,2.086 0.828,3.717 m -4.553,0 c 0,1.186 0.098,2.037 0.293,2.553 0.2,0.511 0.533,0.767 1,0.767 0.458,0 0.79,-0.26 0.993,-0.78 0.204,-0.52 0.306,-1.367 0.306,-2.54 0,-1.186 -0.104,-2.037 -0.312,-2.553 -0.204,-0.52 -0.533,-0.78 -0.987,-0.78 -0.463,0 -0.794,0.26 -0.993,0.78 -0.2,0.516 -0.299,1.367 -0.299,2.553" fill="#dcdcdc"/>
  <path d="m 535,10 c -3,1 -5,0 -5,8 h 10 c 0,-8 -2,-7 -5,-8" fill="#dcdcdc"/>
  <path d="m 533,18 h 4 c 0,2 -2,2 -2,2 0,0 -2,0 -2,-2" fill="#dcdcdc"/>
 </g>
</svg>
