<?xml version="1.0" encoding="UTF-8" standalone="no"?>
<!-- Generator: Adobe Illustrator 16.0.0, SVG Export Plug-In . SVG Version: 6.00 Build 0)  -->

<svg
   xmlns:dc="http://purl.org/dc/elements/1.1/"
   xmlns:cc="http://creativecommons.org/ns#"
   xmlns:rdf="http://www.w3.org/1999/02/22-rdf-syntax-ns#"
   xmlns:svg="http://www.w3.org/2000/svg"
   xmlns="http://www.w3.org/2000/svg"
   xmlns:sodipodi="http://sodipodi.sourceforge.net/DTD/sodipodi-0.dtd"
   xmlns:inkscape="http://www.inkscape.org/namespaces/inkscape"
   version="1.1"
   id="Layer_1"
   x="0px"
   y="0px"
   width="16"
   height="16"
   viewBox="0 0 16 16"
   enable-background="new 0 0 134.658 131.646"
   xml:space="preserve"
   inkscape:version="0.48.5 r10040"
   sodipodi:docname="google-plus.svg"
   inkscape:export-filename="/mnt/7BDB122D7C8C1600/Software/Design/Chrome/Start page/facebook.png"
   inkscape:export-xdpi="90"
   inkscape:export-ydpi="90"><metadata
     id="metadata17"><rdf:RDF><cc:Work
         rdf:about=""><dc:format>image/svg+xml</dc:format><dc:type
           rdf:resource="http://purl.org/dc/dcmitype/StillImage" /><dc:title></dc:title></cc:Work></rdf:RDF></metadata><defs
     id="defs15" /><sodipodi:namedview
     pagecolor="#ffffff"
     bordercolor="#666666"
     borderopacity="1"
     objecttolerance="10"
     gridtolerance="10"
     guidetolerance="10"
     inkscape:pageopacity="0"
     inkscape:pageshadow="2"
     inkscape:window-width="1920"
     inkscape:window-height="1052"
     id="namedview13"
     showgrid="true"
     inkscape:zoom="58.491873"
     inkscape:cx="7.9995338"
     inkscape:cy="6.5826166"
     inkscape:window-x="0"
     inkscape:window-y="28"
     inkscape:window-maximized="1"
     inkscape:current-layer="Layer_1"><inkscape:grid
       type="xygrid"
       id="grid2983"
       empspacing="5"
       visible="true"
       enabled="true"
       snapvisiblegridlinesonly="true" /></sodipodi:namedview><path
     id="polygon3781"
     style="fill:#e08888;fill-opacity:1"
     d="m 14,8 2,0 0,-1 -2,0 0,-2.0000001 -1,0 L 13,7 l -2,0 0,1 2,0 0,2 1,0 z M 8.4383681,9.1343802 7.6666465,8.5517435 C 7.431623,8.3622405 7.1101854,8.1120816 7.1101854,7.6541476 7.1101854,7.1943298 7.431623,6.9019754 7.7106286,6.6312838 8.6096465,5.9433467 9.5078894,5.211142 9.5078894,3.6681812 9.5078894,2.081518 8.4921348,1.3959595 8,1 L 9.4999999,1 11,1.25454e-8 6.4890105,-3.642e-7 c -1.1578731,0 -2.8264813,0.2663589942 -4.0480994,1.2468388642 -0.9207183,0.7723281 -1.3698398,1.837199 -1.3698398,2.7958277 0,1.6273517 1.2851694,3.2769314 3.5546083,3.2769314 0.2142918,0 0.448734,-0.020533 0.6847262,-0.041819 -0.1059834,0.2507241 -0.2131293,0.459441 -0.2131293,0.8137701 0,0.6463067 0.3415881,1.0426429 0.6426816,1.4180696 C 4.7756451,9.5740421 2.975478,9.6778355 1.6484578,10.470885 0.3846014,11.201582 -1.1779999e-8,12.265135 -1.1779999e-8,13.0158 -1.1779999e-8,14.560833 1.4979111,16 4.6039792,16 8.2872401,16 10.237179,14.018508 10.237179,12.056983 10.237373,10.615743 9.3809806,9.9063316 8.4383681,9.1343802 z M 5.633006,6.7348888 c -1.8425992,0 -2.6772909,-2.315854 -2.6772909,-3.7132027 0,-0.5440203 0.1059834,-1.1057477 0.4704344,-1.5444678 0.3435256,-0.4178106 0.9418375,-0.68887891 1.5004299,-0.68887891 1.7763354,0 2.697635,2.33657501 2.697635,3.83941241 0,0.3759919 -0.042626,1.0422661 -0.5351482,1.5239351 C 6.7445719,6.4858601 6.1681541,6.7348888 5.633006,6.7348888 z m 0.021119,8.3906852 c -2.2913331,0 -3.7689001,-1.065624 -3.7689001,-2.547364 0,-1.481363 1.3700336,-1.982434 1.8414367,-2.148391 0.899018,-0.294049 2.0559223,-0.335115 2.2489012,-0.335115 1.2003373,-0.0947 2.8008852,1.746831 2.8276438,2.776614 0,1.292048 -1.092578,2.254256 -3.1490815,2.254256 z" /></svg>