<?xml version="1.0" encoding="UTF-8" standalone="no"?>
<svg
   xmlns:dc="http://purl.org/dc/elements/1.1/"
   xmlns:cc="http://creativecommons.org/ns#"
   xmlns:rdf="http://www.w3.org/1999/02/22-rdf-syntax-ns#"
   xmlns:svg="http://www.w3.org/2000/svg"
   xmlns="http://www.w3.org/2000/svg"
   xmlns:sodipodi="http://sodipodi.sourceforge.net/DTD/sodipodi-0.dtd"
   xmlns:inkscape="http://www.inkscape.org/namespaces/inkscape"
   height="24"
   id="Capa_1"
   version="1.1"
   viewBox="0 0 24 24"
   width="24"
   xml:space="preserve"
   inkscape:version="0.48.5 r10040"
   sodipodi:docname="magnet.svg"><metadata
     id="metadata39"><rdf:RDF><cc:Work
         rdf:about=""><dc:format>image/svg+xml</dc:format><dc:type
           rdf:resource="http://purl.org/dc/dcmitype/StillImage" /><dc:title></dc:title></cc:Work></rdf:RDF></metadata><defs
     id="defs37" /><sodipodi:namedview
     pagecolor="#ffffff"
     bordercolor="#666666"
     borderopacity="1"
     objecttolerance="10"
     gridtolerance="10"
     guidetolerance="10"
     inkscape:pageopacity="0"
     inkscape:pageshadow="2"
     inkscape:window-width="1920"
     inkscape:window-height="1052"
     id="namedview35"
     showgrid="true"
     inkscape:zoom="37.311797"
     inkscape:cx="10.659859"
     inkscape:cy="12.332118"
     inkscape:window-x="0"
     inkscape:window-y="28"
     inkscape:window-maximized="1"
     inkscape:current-layer="Capa_1"><inkscape:grid
       type="xygrid"
       id="grid3027"
       empspacing="5"
       visible="true"
       enabled="true"
       snapvisiblegridlinesonly="true" /></sodipodi:namedview><path
     d="m 17,24 6,0 0,-5 -6,0 z m -16,-5 0,5 6,0 0,-5 z m 0,-3 6,0 0,-6 c 0,-2.0199954 2,-4 5,-4 3,0 5,1.9802646 5,4 l 0,6 6,0 0,-5.842877 C 23,4.6347959 18,0 12,0 6,0 1,4.6347959 1,10.157123 1.068883,12.016156 1.014862,14.089756 1,16 z"
     id="path3"
     inkscape:connector-curvature="0"
     style="fill:#df9999;fill-opacity:1"
     sodipodi:nodetypes="cccccccccccccsccccscc" /></svg>