<svg xmlns="http://www.w3.org/2000/svg" viewBox="0 0 640 480" width="640" height="480">
 <rect height="480" rx="2.605" width="640" fill="#d64937" fill-rule="evenodd"/>
 <g>
  <rect height="200" rx="2.315" y="100" x="80" width="290" fill="#dedede" fill-rule="evenodd"/>
  <path d="m 82.31,100 c -1.283,0 -2.313,1.03 -2.313,2.313 v 17.688 h 290 v -17.688 c 0,-1.283 -1.03,-2.313 -2.313,-2.313 H 82.314" fill="#2d2d2d" fill-rule="evenodd"/>
  <path d="m 170,120 v 180 h 197.69 c 1.283,0 2.313,-1.03 2.313,-2.313 v -177.69 h -200" fill="#f9f9f9" fill-rule="evenodd"/>
 </g>
 <g>
  <path d="m 147,420 c -1.207,0 -2,0.793 -2,2 v 58 h 350 v -58 c 0,-1.207 -0.793,-2 -2,-2 z" fill="#2d2d2d" fill-rule="evenodd"/>
  <path color="#000" fill="#888" d="m147 419c-1.476 0-3.01 1.524-3 3v58h1v-58c0-.939 1.061-2 2-2h346c.939 0 2.01 1.061 2 2v58h1v-58c0-1.476-1.524-3-3-3z"/>
  <path fill="#d64937" d="m217 476h24v4h-24z"/>
  <g>
   <path d="m 245.00009,451.01014 a 17.00009,16.999963 0 0 1 -34.00018,0 17.00009,16.999963 0 1 1 34.00018,0" fill="#9b59b6" fill-rule="evenodd"/>
   <path d="m 291.00009,451.01014 a 17.00009,16.999963 0 0 1 -34.00018,0 17.00009,16.999963 0 1 1 34.00018,0" fill="#f39c12" fill-rule="evenodd"/>
   <path d="m 337.00008,451.01014 a 17.00009,16.999963 0 0 1 -34.00018,0 17.00009,16.999963 0 1 1 34.00018,0" fill="#2980b9" fill-rule="evenodd"/>
   <path d="m 383.00008,451.01014 a 17.00009,16.999963 0 0 1 -34.00018,0 17.00009,16.999963 0 1 1 34.00018,0" fill="#27ae60" fill-rule="evenodd"/>
   <path d="m 429.00008,451.01014 a 17.00009,16.999963 0 0 1 -34.00018,0 17.00009,16.999963 0 1 1 34.00018,0" fill="#f1c40f" fill-rule="evenodd"/>
   <g>
    <path d="m 199.00009,451.01014 a 17.00009,16.999963 0 0 1 -34.00018,0 17.00009,16.999963 0 1 1 34.00018,0" opacity="0.5" fill="#f9f9f6" fill-rule="evenodd"/>
    <path d="m 171,442 h 10 v 8 h -10 z" fill="#f9f9f6"/>
    <path d="m 171,452 h 10 v 8 h -10 z" opacity="0.5" fill="#f9f9f6"/>
    <path d="m 184,442 h 10 v 8 h -10 z" opacity="0.5" fill="#f9f9f6"/>
    <path d="m 184,452 h 10 v 8 h -10 z" opacity="0.5" fill="#f9f9f6"/>
   </g>
   <g>
    <path d="m 475.00009,451.01014 a 17.00009,16.999963 0 0 1 -34.00018,0 17.00009,16.999963 0 1 1 34.00018,0" opacity="0.5" fill="#f9f9f6" fill-rule="evenodd"/>
    <path d="m 454.57,456.71 c 0,1.262 -1.023,2.286 -2.286,2.286 -1.262,0 -2.286,-1.023 -2.286,-2.286 0,-1.262 1.023,-2.286 2.286,-2.286 1.262,0 2.286,1.023 2.286,2.286" fill="#f9f9f9" fill-rule="evenodd"/>
    <path d="m 454.57,451 c 0,1.262 -1.023,2.286 -2.286,2.286 -1.262,0 -2.286,-1.023 -2.286,-2.286 0,-1.262 1.023,-2.286 2.286,-2.286 1.262,0 2.286,1.023 2.286,2.286" fill="#f9f9f9" fill-rule="evenodd"/>
    <path d="m 454.57,445.29 c 0,1.262 -1.023,2.286 -2.286,2.286 -1.262,0 -2.286,-1.023 -2.286,-2.286 0,-1.262 1.023,-2.286 2.286,-2.286 1.262,0 2.286,1.023 2.286,2.286" fill="#f9f9f9" fill-rule="evenodd"/>
    <path d="m 460.28,456.71 c 0,1.262 -1.023,2.286 -2.286,2.286 -1.262,0 -2.286,-1.023 -2.286,-2.286 0,-1.262 1.023,-2.286 2.286,-2.286 1.262,0 2.286,1.023 2.286,2.286" fill="#f9f9f9" fill-rule="evenodd"/>
    <path d="m 460.28,451 c 0,1.262 -1.023,2.286 -2.286,2.286 -1.262,0 -2.286,-1.023 -2.286,-2.286 0,-1.262 1.023,-2.286 2.286,-2.286 1.262,0 2.286,1.023 2.286,2.286" fill="#f9f9f9" fill-rule="evenodd"/>
    <path d="m 460.28,445.29 c 0,1.262 -1.023,2.286 -2.286,2.286 -1.262,0 -2.286,-1.023 -2.286,-2.286 0,-1.262 1.023,-2.286 2.286,-2.286 1.262,0 2.286,1.023 2.286,2.286" fill="#f9f9f9" fill-rule="evenodd"/>
    <path d="m 466,456.71 c 0,1.262 -1.023,2.286 -2.286,2.286 -1.262,0 -2.286,-1.023 -2.286,-2.286 0,-1.262 1.023,-2.286 2.286,-2.286 1.262,0 2.286,1.023 2.286,2.286" fill="#f9f9f9" fill-rule="evenodd"/>
    <path d="m 466,451 c 0,1.262 -1.023,2.286 -2.286,2.286 -1.262,0 -2.286,-1.023 -2.286,-2.286 0,-1.262 1.023,-2.286 2.286,-2.286 1.262,0 2.286,1.023 2.286,2.286" fill="#f9f9f9" fill-rule="evenodd"/>
    <path d="m 466,445.29 c 0,1.262 -1.023,2.286 -2.286,2.286 -1.262,0 -2.286,-1.023 -2.286,-2.286 0,-1.262 1.023,-2.286 2.286,-2.286 1.262,0 2.286,1.023 2.286,2.286" fill="#f9f9f9" fill-rule="evenodd"/>
   </g>
  </g>
 </g>
 <g>
  <rect height="30" rx="2.315" width="640" fill="#2d2d2d" fill-rule="evenodd"/>
  <rect ry="0.5" height="1" rx="2.315" y="29" width="640" fill="#888888" fill-rule="evenodd"/>
  <g>
   <path d="m 19.999898,14.99996 a 4.999968,4.999989 0 0 1 -9.999936,0 4.999968,4.999989 0 1 1 9.999936,0" fill="#dcdcdc" fill-rule="evenodd" fill-opacity="0.941"/>
   <path d="m 33.999898,14.99996 a 4.999968,4.999989 0 1 1 -9.999936,0 4.999968,4.999989 0 1 1 9.999936,0" fill="#dcdcdc" fill-rule="evenodd" fill-opacity="0.941"/>
   <path d="m 47.999898,14.99996 a 4.999968,4.999989 0 1 1 -9.999936,0 4.999968,4.999989 0 1 1 9.999936,0" fill="#dcdcdc" fill-rule="evenodd" fill-opacity="0.941"/>
   <path d="m 630,12 h -10 l 5,6 z" fill="#dcdcdc"/>
   <path d="m 601,10 v 10 l -5,-3 h -2 v -4 h 2 z" fill="#dcdcdc"/>
   <path d="m 603,18 v 2 h 2 v -2 z" fill="#dcdcdc"/>
   <path d="m 603,14 v 2 h 2 v -2 z" fill="#dcdcdc"/>
   <path d="m 603,10 v 2 h 2 v -2 z" fill="#dcdcdc"/>
   <path d="m 570,10 1.5,2 h 12 l 1.5,-2 h -15 m 3,4 1.5,2 h 6 l 1.5,-2 h -9 m 3,4 1.5,2 1.5,-2 h -3" fill="#dcdcdc"/>
   <path d="m 294.5,19.821 h -1.974 v -7.963 h -2.528 v -1.706 h 7.03 v 1.706 H 294.5 v 7.963" fill="#dcdcdc"/>
   <path d="m 303.37,19.821 -0.261,-0.946 h -0.102 c -0.208,0.344 -0.503,0.611 -0.885,0.8 -0.382,0.185 -0.817,0.278 -1.305,0.278 -0.836,0 -1.467,-0.231 -1.891,-0.694 -0.424,-0.467 -0.637,-1.138 -0.637,-2.01 v -4.821 h 1.942 v 4.319 c 0,0.534 0.091,0.935 0.274,1.204 0.183,0.265 0.473,0.397 0.872,0.397 0.543,0 0.936,-0.187 1.178,-0.562 0.242,-0.379 0.363,-1.01 0.363,-1.878 v -3.479 h 1.942 v 7.394 h -1.49" fill="#dcdcdc"/>
   <path d="m 309.85,13.724 c -0.412,0 -0.734,0.137 -0.968,0.41 -0.233,0.269 -0.367,0.653 -0.401,1.151 h 2.725 c -0.009,-0.498 -0.134,-0.882 -0.376,-1.151 -0.242,-0.273 -0.569,-0.41 -0.981,-0.41 m 0.274,6.23 c -1.146,0 -2.042,-0.328 -2.687,-0.985 -0.645,-0.657 -0.968,-1.587 -0.968,-2.791 0,-1.239 0.297,-2.196 0.891,-2.87 0.599,-0.679 1.424,-1.019 2.477,-1.019 1.01,0 1.789,0.298 2.35,0.893 0.56,0.595 0.841,1.418 0.841,2.467 v 0.979 h -4.591 c 0.021,0.573 0.185,1.021 0.49,1.343 0.306,0.322 0.734,0.483 1.286,0.483 0.429,0 0.834,-0.046 1.216,-0.139 0.382,-0.093 0.781,-0.24 1.197,-0.443 v 1.561 c -0.34,0.176 -0.703,0.306 -1.089,0.39 -0.386,0.088 -0.857,0.132 -1.414,0.132" fill="#dcdcdc"/>
   <path d="m 323.97,14.987 c 0,1.689 -0.267,2.939 -0.802,3.75 -0.531,0.811 -1.35,1.217 -2.458,1.217 -1.074,0 -1.885,-0.419 -2.432,-1.257 -0.543,-0.838 -0.815,-2.075 -0.815,-3.71 0,-1.706 0.265,-2.963 0.796,-3.77 0.531,-0.811 1.348,-1.217 2.451,-1.217 1.074,0 1.885,0.423 2.432,1.27 0.552,0.847 0.828,2.086 0.828,3.717 m -4.553,0 c 0,1.186 0.098,2.037 0.293,2.553 0.2,0.511 0.533,0.767 1,0.767 0.458,0 0.79,-0.26 0.993,-0.78 0.204,-0.52 0.306,-1.367 0.306,-2.54 0,-1.186 -0.104,-2.037 -0.312,-2.553 -0.204,-0.52 -0.533,-0.78 -0.987,-0.78 -0.463,0 -0.794,0.26 -0.993,0.78 -0.2,0.516 -0.299,1.367 -0.299,2.553" fill="#dcdcdc"/>
   <path d="m 329.82,19.821 h -1.968 v -5.595 l 0.019,-0.919 0.032,-1.01 c -0.327,0.34 -0.554,0.562 -0.681,0.668 l -1.07,0.893 -0.949,-1.23 2.999,-2.48 h 1.617 v 9.669" fill="#dcdcdc"/>
   <path d="m 332.61,18.876 c 0,-0.37 0.096,-0.65 0.287,-0.84 0.191,-0.19 0.469,-0.284 0.834,-0.284 0.352,0 0.624,0.097 0.815,0.291 0.195,0.194 0.293,0.472 0.293,0.833 0,0.348 -0.098,0.624 -0.293,0.827 -0.195,0.198 -0.467,0.298 -0.815,0.298 -0.357,0 -0.632,-0.097 -0.828,-0.291 -0.195,-0.198 -0.293,-0.476 -0.293,-0.833 m 0,-5.463 c 0,-0.37 0.096,-0.65 0.287,-0.84 0.191,-0.19 0.469,-0.284 0.834,-0.284 0.352,0 0.624,0.097 0.815,0.291 0.195,0.194 0.293,0.472 0.293,0.833 0,0.357 -0.1,0.635 -0.299,0.833 -0.195,0.194 -0.465,0.291 -0.809,0.291 -0.357,0 -0.632,-0.097 -0.828,-0.291 -0.195,-0.194 -0.293,-0.472 -0.293,-0.833" fill="#dcdcdc"/>
   <path d="m 342.56,14.987 c 0,1.689 -0.267,2.939 -0.802,3.75 -0.531,0.811 -1.35,1.217 -2.458,1.217 -1.074,0 -1.885,-0.419 -2.432,-1.257 -0.543,-0.838 -0.815,-2.075 -0.815,-3.71 0,-1.706 0.265,-2.963 0.796,-3.77 C 337.38,10.406 338.197,10 339.3,10 c 1.074,0 1.885,0.423 2.432,1.27 0.552,0.847 0.828,2.086 0.828,3.717 m -4.553,0 c 0,1.186 0.098,2.037 0.293,2.553 0.2,0.511 0.533,0.767 1,0.767 0.458,0 0.79,-0.26 0.993,-0.78 0.204,-0.52 0.306,-1.367 0.306,-2.54 0,-1.186 -0.104,-2.037 -0.312,-2.553 -0.204,-0.52 -0.533,-0.78 -0.987,-0.78 -0.463,0 -0.794,0.26 -0.993,0.78 -0.2,0.516 -0.299,1.367 -0.299,2.553" fill="#dcdcdc"/>
   <path d="m 350,14.987 c 0,1.689 -0.267,2.939 -0.802,3.75 -0.531,0.811 -1.35,1.217 -2.458,1.217 -1.074,0 -1.885,-0.419 -2.432,-1.257 -0.543,-0.838 -0.815,-2.075 -0.815,-3.71 0,-1.706 0.265,-2.963 0.796,-3.77 0.531,-0.811 1.348,-1.217 2.451,-1.217 1.074,0 1.885,0.423 2.432,1.27 0.552,0.847 0.828,2.086 0.828,3.717 m -4.553,0 c 0,1.186 0.098,2.037 0.293,2.553 0.2,0.511 0.533,0.767 1,0.767 0.458,0 0.79,-0.26 0.993,-0.78 0.204,-0.52 0.306,-1.367 0.306,-2.54 0,-1.186 -0.104,-2.037 -0.312,-2.553 -0.204,-0.52 -0.533,-0.78 -0.987,-0.78 -0.463,0 -0.794,0.26 -0.993,0.78 -0.2,0.516 -0.299,1.367 -0.299,2.553" fill="#dcdcdc"/>
   <path d="m 535,10 c -3,1 -5,0 -5,8 h 10 c 0,-8 -2,-7 -5,-8" fill="#dcdcdc"/>
   <path d="m 533,18 h 4 c 0,2 -2,2 -2,2 0,0 -2,0 -2,-2" fill="#dcdcdc"/>
  </g>
 </g>
</svg>
