<svg xmlns="http://www.w3.org/2000/svg" viewBox="0 0 640 480" width="640" height="480">
 <rect height="480" rx="2.605" width="640" fill="#d64937" fill-rule="evenodd"/>
 <rect height="480" rx="2.605" width="640" fill-rule="evenodd" fill-opacity="0.3"/>
 <g>
  <rect width="200" x="90" y="110" rx="2.447" height="120" stroke-opacity="0.5" fill="#2d2d2d" fill-rule="evenodd" stroke="#f9f9f9" stroke-width="4"/>
 </g>
 <g>
  <rect width="160.01" x="240.01" y="44.07" rx="2.402" height="30" fill="#f9f9f9" fill-rule="evenodd" fill-opacity="0.2"/>
  <path d="m 261.28617,60.826758 c 0,0.862223 -0.28375,1.541456 -0.85125,2.037699 -0.56347,0.496243 -1.34931,0.744365 -2.35752,0.744365 -0.92873,0 -1.75079,-0.191261 -2.46519,-0.574815 v -1.880555 c 0.58762,0.287407 1.08367,0.49004 1.48817,0.606864 0.40851,0.117858 0.78181,0.176787 1.1199,0.176787 0.40449,0 0.7144,-0.08478 0.92872,-0.254325 0.21834,-0.16955 0.32701,-0.422841 0.32701,-0.757805 0,-0.187125 -0.0473,-0.352539 -0.14288,-0.496243 -0.0956,-0.147839 -0.23645,-0.289475 -0.4226,-0.424908 -0.18212,-0.135433 -0.55744,-0.350472 -1.12493,-0.64615 -0.53228,-0.273968 -0.93074,-0.537597 -1.19637,-0.789854 -0.26564,-0.252257 -0.47795,-0.546901 -0.63693,-0.881866 -0.15898,-0.334964 -0.23847,-0.726789 -0.23847,-1.175476 0,-0.844647 0.2596,-1.508372 0.77981,-1.992209 0.52423,-0.482804 1.24668,-0.724722 2.16735,-0.724722 0.45279,0 0.88345,0.05893 1.29196,0.176787 0.41254,0.117857 0.8432,0.283272 1.29196,0.496243 l -0.59567,1.573504 c -0.46486,-0.208835 -0.84923,-0.354607 -1.15511,-0.437314 -0.30186,-0.08271 -0.5997,-0.124061 -0.89351,-0.124061 -0.34915,0 -0.6168,0.08891 -0.80395,0.267765 -0.18615,0.178854 -0.27973,0.411468 -0.27973,0.698875 0,0.178855 0.0382,0.334965 0.1127,0.470398 0.0755,0.130264 0.19419,0.259494 0.3572,0.385622 0.16703,0.121993 0.55743,0.344269 1.17323,0.665793 0.81401,0.426976 1.37145,0.856019 1.67331,1.286097 0.30186,0.426976 0.45279,0.951133 0.45279,1.573504" opacity="0.5" fill="#f9f9f9"/>
  <path d="m 265.48202,57.466778 c -0.38537,0 -0.68723,0.135433 -0.90558,0.405266 -0.21834,0.265697 -0.34311,0.644082 -0.37531,1.13619 h 2.5487 c -0.007,-0.492108 -0.12476,-0.870493 -0.35116,-1.13619 -0.22639,-0.269833 -0.53228,-0.405266 -0.91665,-0.405266 m 0.25558,6.152382 c -1.07161,0 -1.90977,-0.324626 -2.51248,-0.972843 -0.60372,-0.648218 -0.90558,-1.567302 -0.90558,-2.756218 0,-1.223032 0.27771,-2.167962 0.83313,-2.834789 0.55945,-0.670962 1.33221,-1.005926 2.31627,-1.005926 0.9408,0 1.67331,0.29361 2.19754,0.881865 0.52423,0.588255 0.78584,1.39982 0.78584,2.435727 v 0.966641 h -4.29345 c 0.0201,0.56551 0.17307,1.007994 0.45883,1.325383 0.28576,0.317388 0.68723,0.4766 1.20241,0.4766 0.40046,0 0.7798,-0.04549 1.137,-0.137501 0.3572,-0.09098 0.7305,-0.237783 1.1199,-0.437314 v 1.541455 c -0.31796,0.173685 -0.65705,0.302915 -1.01827,0.385623 -0.36123,0.08684 -0.80194,0.130263 -1.32215,0.130263" opacity="0.5" fill="#f9f9f9"/>
  <path d="m 274.16553,63.483727 -0.35117,-0.992486 h -0.0473 c -0.30588,0.42284 -0.62082,0.716451 -0.94683,0.881865 -0.32199,0.161279 -0.74258,0.241919 -1.26278,0.241919 -0.63894,0 -1.14305,-0.200565 -1.51232,-0.600661 -0.36525,-0.400096 -0.54737,-0.970776 -0.54737,-1.711005 0,-0.77538 0.24652,-1.345026 0.73855,-1.711006 0.49605,-0.370114 1.24265,-0.574815 2.23879,-0.614101 l 1.15512,-0.03928 v -0.320491 c 0,-0.740229 -0.34513,-1.110344 -1.03639,-1.110344 -0.53228,0 -1.15713,0.176787 -1.87555,0.529326 l -0.60171,-1.345026 c 0.76572,-0.439382 1.61596,-0.65959 2.5487,-0.65959 0.89351,0 1.57773,0.212971 2.05466,0.639947 0.47594,0.426976 0.71441,1.075194 0.71441,1.946721 v 4.865251 h -1.26782 m -0.5363,-3.382724 -0.70233,0.02585 c -0.52825,0.01758 -0.92067,0.121993 -1.17926,0.313253 -0.25759,0.19126 -0.38739,0.482803 -0.38739,0.874629 0,0.561375 0.29381,0.842579 0.88143,0.842579 0.42059,0 0.75666,-0.132331 1.0062,-0.398028 0.25356,-0.265697 0.38135,-0.618236 0.38135,-1.057618 v -0.600661" opacity="0.5" fill="#f9f9f9"/>
  <path d="m 281.01775,56.040079 c 0.24652,0 0.45078,0.01964 0.61378,0.05893 l -0.13684,1.868149 c -0.14691,-0.04342 -0.32601,-0.06513 -0.53631,-0.06513 -0.57957,0 -1.03236,0.163347 -1.35736,0.49004 -0.32198,0.326694 -0.48197,0.783651 -0.48197,1.371906 v 3.715621 h -1.81619 v -7.298911 h 1.37547 l 0.26765,1.228202 h 0.0896 c 0.20627,-0.4094 0.48398,-0.738161 0.83313,-0.986283 0.35318,-0.252257 0.73654,-0.378385 1.14908,-0.378385" opacity="0.5" fill="#f9f9f9"/>
  <path d="m 285.54565,63.613991 c -2.07177,0 -3.10815,-1.247845 -3.10815,-3.742501 0,-1.240608 0.28173,-2.187605 0.84521,-2.840992 0.56347,-0.657522 1.37145,-0.986283 2.42393,-0.986283 0.76974,0 1.461,0.165414 2.07177,0.496243 l -0.53631,1.541455 c -0.28576,-0.126128 -0.55139,-0.228478 -0.79791,-0.30705 -0.24652,-0.08271 -0.49204,-0.124061 -0.73855,-0.124061 -0.94483,0 -1.41673,0.736094 -1.41673,2.207248 0,1.427733 0.4719,2.142117 1.41673,2.142117 0.34915,0 0.67314,-0.04962 0.97098,-0.149907 0.29783,-0.104418 0.59567,-0.265697 0.8935,-0.482803 v 1.704802 c -0.29381,0.2047 -0.59164,0.346336 -0.8935,0.424908 -0.29784,0.07857 -0.67516,0.117858 -1.13097,0.117858" opacity="0.5" fill="#f9f9f9"/>
  <path d="m 295.25548,63.483727 h -1.81619 v -4.26459 c 0,-1.053483 -0.3572,-1.580741 -1.0716,-1.580741 -0.50814,0 -0.8754,0.189193 -1.10179,0.568612 -0.2264,0.378385 -0.33909,0.992486 -0.33909,1.841269 v 3.43545 h -1.81619 V 53.322114 h 1.81619 v 2.06768 c 0,0.161279 -0.0141,0.539664 -0.0413,1.13619 l -0.0413,0.588255 h 0.0956 c 0.40449,-0.714383 1.04846,-1.071058 1.92888,-1.071058 0.78182,0 1.37548,0.230546 1.77997,0.692673 0.40449,0.461092 0.60775,1.123784 0.60775,1.984972 v 4.760834" opacity="0.5" fill="#f9f9f9"/>
  <path d="m 296.88552,62.549136 c 0,-0.36598 0.0896,-0.642015 0.26765,-0.82914 0.17911,-0.187125 0.43871,-0.281204 0.77981,-0.281204 0.32903,0 0.58359,0.09615 0.76169,0.287407 0.18212,0.191261 0.27369,0.466262 0.27369,0.822937 0,0.344269 -0.0916,0.616168 -0.27369,0.816733 -0.18212,0.19643 -0.43669,0.293611 -0.76169,0.293611 -0.33305,0 -0.59165,-0.09615 -0.77377,-0.287408 -0.18212,-0.196429 -0.27369,-0.470397 -0.27369,-0.822936" opacity="0.5" fill="#f9f9f9"/>
  <path d="m 300.35691,62.549136 c 0,-0.36598 0.0896,-0.642015 0.26765,-0.82914 0.17911,-0.187125 0.43871,-0.281204 0.77981,-0.281204 0.32903,0 0.58359,0.09615 0.76169,0.287407 0.18212,0.191261 0.27369,0.466262 0.27369,0.822937 0,0.344269 -0.0916,0.616168 -0.27369,0.816733 -0.18212,0.19643 -0.43669,0.293611 -0.76169,0.293611 -0.33305,0 -0.59165,-0.09615 -0.77377,-0.287408 -0.18212,-0.196429 -0.27369,-0.470397 -0.27369,-0.822936" opacity="0.5" fill="#f9f9f9"/>
  <path d="m 303.83837,62.549136 c 0,-0.36598 0.0895,-0.642015 0.26765,-0.82914 0.1791,-0.187125 0.4387,-0.281204 0.7798,-0.281204 0.32903,0 0.5836,0.09615 0.76169,0.287407 0.18213,0.191261 0.27369,0.466262 0.27369,0.822937 0,0.344269 -0.0916,0.616168 -0.27369,0.816733 -0.18212,0.19643 -0.43669,0.293611 -0.76169,0.293611 -0.33305,0 -0.59165,-0.09615 -0.77377,-0.287408 -0.18212,-0.196429 -0.27368,-0.470397 -0.27368,-0.822936" opacity="0.5" fill="#f9f9f9"/>
  <path d="m 377.3614,53.32108 c -2.77812,0 -5.031,2.314768 -5.031,5.1692 0,2.854432 2.25288,5.1692 5.031,5.1692 1.13701,0 2.17641,-0.380453 3.0186,-1.03384 l 1.0062,1.03384 1.0062,-1.03384 -1.0062,-1.03384 c 0.63592,-0.865324 1.0062,-1.933281 1.0062,-3.10152 0,-2.854432 -2.25288,-5.1692 -5.031,-5.1692 m 0,2.06768 c 1.66727,0 3.0186,1.388447 3.0186,3.10152 0,1.713073 -1.35133,3.10152 -3.0186,3.10152 -1.66727,0 -3.0186,-1.388447 -3.0186,-3.10152 0,-1.713073 1.35133,-3.10152 3.0186,-3.10152" opacity="0.5" fill="#f9f9f9" fill-rule="evenodd"/>
 </g>
 <g>
  <rect height="120" rx="2.447" y="110" x="350" width="200" fill="#dedede" fill-rule="evenodd"/>
  <path d="m 352.44,110 c -1.356,0 -2.438,1.082 -2.438,2.438 v 17.563 h 200 v -17.563 c 0,-1.356 -1.082,-2.438 -2.438,-2.438 h -195.12" fill="#2d2d2d" fill-rule="evenodd"/>
  <path d="m 410,130 v 100 h 137.56 c 1.356,0 2.438,-1.082 2.438,-2.438 v -97.56 h -140" fill="#f9f9f9" fill-rule="evenodd"/>
 </g>
 <g>
  <rect width="200" x="220" y="280" rx="2.447" height="120" fill="#f9f9f9" fill-rule="evenodd"/>
  <path d="m 222.44,280 c -1.356,0 -2.438,1.082 -2.438,2.438 v 17.563 h 200 v -17.563 c 0,-1.356 -1.082,-2.438 -2.438,-2.438 h -195.12" fill="#2d2d2d" fill-rule="evenodd"/>
 </g>
 <g>
  <path d="m 19.999898,14.99996 a 4.999968,4.999989 0 0 1 -9.999936,0 4.999968,4.999989 0 1 1 9.999936,0" fill="#dcdcdc" fill-rule="evenodd" fill-opacity="0.941"/>
  <path d="m 33.999898,14.99996 a 4.999968,4.999989 0 1 1 -9.999936,0 4.999968,4.999989 0 1 1 9.999936,0" fill="#dcdcdc" fill-rule="evenodd" fill-opacity="0.941"/>
  <path d="m 47.999898,14.99996 a 4.999968,4.999989 0 1 1 -9.999936,0 4.999968,4.999989 0 1 1 9.999936,0" fill="#dcdcdc" fill-rule="evenodd" fill-opacity="0.941"/>
  <path d="m 630,12 h -10 l 5,6 z" fill="#dcdcdc"/>
  <path d="m 601,10 v 10 l -5,-3 h -2 v -4 h 2 z" fill="#dcdcdc"/>
  <path d="m 603,18 v 2 h 2 v -2 z" fill="#dcdcdc"/>
  <path d="m 603,14 v 2 h 2 v -2 z" fill="#dcdcdc"/>
  <path d="m 603,10 v 2 h 2 v -2 z" fill="#dcdcdc"/>
  <path d="m 570,10 1.5,2 h 12 l 1.5,-2 h -15 m 3,4 1.5,2 h 6 l 1.5,-2 h -9 m 3,4 1.5,2 1.5,-2 h -3" fill="#dcdcdc"/>
  <path d="m 294.5,19.821 h -1.974 v -7.963 h -2.528 v -1.706 h 7.03 v 1.706 H 294.5 v 7.963" fill="#dcdcdc"/>
  <path d="m 303.37,19.821 -0.261,-0.946 h -0.102 c -0.208,0.344 -0.503,0.611 -0.885,0.8 -0.382,0.185 -0.817,0.278 -1.305,0.278 -0.836,0 -1.467,-0.231 -1.891,-0.694 -0.424,-0.467 -0.637,-1.138 -0.637,-2.01 v -4.821 h 1.942 v 4.319 c 0,0.534 0.091,0.935 0.274,1.204 0.183,0.265 0.473,0.397 0.872,0.397 0.543,0 0.936,-0.187 1.178,-0.562 0.242,-0.379 0.363,-1.01 0.363,-1.878 v -3.479 h 1.942 v 7.394 h -1.49" fill="#dcdcdc"/>
  <path d="m 309.85,13.724 c -0.412,0 -0.734,0.137 -0.968,0.41 -0.233,0.269 -0.367,0.653 -0.401,1.151 h 2.725 c -0.009,-0.498 -0.134,-0.882 -0.376,-1.151 -0.242,-0.273 -0.569,-0.41 -0.981,-0.41 m 0.274,6.23 c -1.146,0 -2.042,-0.328 -2.687,-0.985 -0.645,-0.657 -0.968,-1.587 -0.968,-2.791 0,-1.239 0.297,-2.196 0.891,-2.87 0.599,-0.679 1.424,-1.019 2.477,-1.019 1.01,0 1.789,0.298 2.35,0.893 0.56,0.595 0.841,1.418 0.841,2.467 v 0.979 h -4.591 c 0.021,0.573 0.185,1.021 0.49,1.343 0.306,0.322 0.734,0.483 1.286,0.483 0.429,0 0.834,-0.046 1.216,-0.139 0.382,-0.093 0.781,-0.24 1.197,-0.443 v 1.561 c -0.34,0.176 -0.703,0.306 -1.089,0.39 -0.386,0.088 -0.857,0.132 -1.414,0.132" fill="#dcdcdc"/>
  <path d="m 323.97,14.987 c 0,1.689 -0.267,2.939 -0.802,3.75 -0.531,0.811 -1.35,1.217 -2.458,1.217 -1.074,0 -1.885,-0.419 -2.432,-1.257 -0.543,-0.838 -0.815,-2.075 -0.815,-3.71 0,-1.706 0.265,-2.963 0.796,-3.77 0.531,-0.811 1.348,-1.217 2.451,-1.217 1.074,0 1.885,0.423 2.432,1.27 0.552,0.847 0.828,2.086 0.828,3.717 m -4.553,0 c 0,1.186 0.098,2.037 0.293,2.553 0.2,0.511 0.533,0.767 1,0.767 0.458,0 0.79,-0.26 0.993,-0.78 0.204,-0.52 0.306,-1.367 0.306,-2.54 0,-1.186 -0.104,-2.037 -0.312,-2.553 -0.204,-0.52 -0.533,-0.78 -0.987,-0.78 -0.463,0 -0.794,0.26 -0.993,0.78 -0.2,0.516 -0.299,1.367 -0.299,2.553" fill="#dcdcdc"/>
  <path d="m 329.82,19.821 h -1.968 v -5.595 l 0.019,-0.919 0.032,-1.01 c -0.327,0.34 -0.554,0.562 -0.681,0.668 l -1.07,0.893 -0.949,-1.23 2.999,-2.48 h 1.617 v 9.669" fill="#dcdcdc"/>
  <path d="m 332.61,18.876 c 0,-0.37 0.096,-0.65 0.287,-0.84 0.191,-0.19 0.469,-0.284 0.834,-0.284 0.352,0 0.624,0.097 0.815,0.291 0.195,0.194 0.293,0.472 0.293,0.833 0,0.348 -0.098,0.624 -0.293,0.827 -0.195,0.198 -0.467,0.298 -0.815,0.298 -0.357,0 -0.632,-0.097 -0.828,-0.291 -0.195,-0.198 -0.293,-0.476 -0.293,-0.833 m 0,-5.463 c 0,-0.37 0.096,-0.65 0.287,-0.84 0.191,-0.19 0.469,-0.284 0.834,-0.284 0.352,0 0.624,0.097 0.815,0.291 0.195,0.194 0.293,0.472 0.293,0.833 0,0.357 -0.1,0.635 -0.299,0.833 -0.195,0.194 -0.465,0.291 -0.809,0.291 -0.357,0 -0.632,-0.097 -0.828,-0.291 -0.195,-0.194 -0.293,-0.472 -0.293,-0.833" fill="#dcdcdc"/>
  <path d="m 342.56,14.987 c 0,1.689 -0.267,2.939 -0.802,3.75 -0.531,0.811 -1.35,1.217 -2.458,1.217 -1.074,0 -1.885,-0.419 -2.432,-1.257 -0.543,-0.838 -0.815,-2.075 -0.815,-3.71 0,-1.706 0.265,-2.963 0.796,-3.77 C 337.38,10.406 338.197,10 339.3,10 c 1.074,0 1.885,0.423 2.432,1.27 0.552,0.847 0.828,2.086 0.828,3.717 m -4.553,0 c 0,1.186 0.098,2.037 0.293,2.553 0.2,0.511 0.533,0.767 1,0.767 0.458,0 0.79,-0.26 0.993,-0.78 0.204,-0.52 0.306,-1.367 0.306,-2.54 0,-1.186 -0.104,-2.037 -0.312,-2.553 -0.204,-0.52 -0.533,-0.78 -0.987,-0.78 -0.463,0 -0.794,0.26 -0.993,0.78 -0.2,0.516 -0.299,1.367 -0.299,2.553" fill="#dcdcdc"/>
  <path d="m 350,14.987 c 0,1.689 -0.267,2.939 -0.802,3.75 -0.531,0.811 -1.35,1.217 -2.458,1.217 -1.074,0 -1.885,-0.419 -2.432,-1.257 -0.543,-0.838 -0.815,-2.075 -0.815,-3.71 0,-1.706 0.265,-2.963 0.796,-3.77 0.531,-0.811 1.348,-1.217 2.451,-1.217 1.074,0 1.885,0.423 2.432,1.27 0.552,0.847 0.828,2.086 0.828,3.717 m -4.553,0 c 0,1.186 0.098,2.037 0.293,2.553 0.2,0.511 0.533,0.767 1,0.767 0.458,0 0.79,-0.26 0.993,-0.78 0.204,-0.52 0.306,-1.367 0.306,-2.54 0,-1.186 -0.104,-2.037 -0.312,-2.553 -0.204,-0.52 -0.533,-0.78 -0.987,-0.78 -0.463,0 -0.794,0.26 -0.993,0.78 -0.2,0.516 -0.299,1.367 -0.299,2.553" fill="#dcdcdc"/>
  <path d="m 535,10 c -3,1 -5,0 -5,8 h 10 c 0,-8 -2,-7 -5,-8" fill="#dcdcdc"/>
  <path d="m 533,18 h 4 c 0,2 -2,2 -2,2 0,0 -2,0 -2,-2" fill="#dcdcdc"/>
 </g>
 <g>
  <path d="M 40,0 C 40,-22.09 22.091,-40 0,-40 -22.09,-40 -40,-22.091 -40,0 -40,22.09 -22.091,40 0,40 22.09,40 40,22.091 40,0" opacity="0.3" fill="#f9f9f9" fill-rule="evenodd"/>
  <path d="m 20,0 c 0,-11.05 -8.954,-20 -20,-20 -11.05,0 -20,8.954 -20,20 0,11.05 8.954,20 20,20 11.05,0 20,-8.954 20,-20" opacity="0.4" fill="#f9f9f9" fill-rule="evenodd"/>
 </g>
 <g>
  <path d="m 260.999,476 h 24 v 4 h -24 z" fill="#d64937"/>
  <path d="m 307.999,476 h 24 v 4 h -24 z" fill="#d64937"/>
  <path d="m 216.999,476 h 24 v 4 h -24 z" fill="#d64937"/>
  <g>
   <path d="m 245.00009,451.01014 a 17.00009,16.999963 0 0 1 -34.00018,0 17.00009,16.999963 0 1 1 34.00018,0" fill="#9b59b6" fill-rule="evenodd"/>
   <path d="m 291.00009,451.01014 a 17.00009,16.999963 0 0 1 -34.00018,0 17.00009,16.999963 0 1 1 34.00018,0" fill="#f39c12" fill-rule="evenodd"/>
   <path d="m 337.00008,451.01014 a 17.00009,16.999963 0 0 1 -34.00018,0 17.00009,16.999963 0 1 1 34.00018,0" fill="#2980b9" fill-rule="evenodd"/>
   <path d="m 383.00008,451.01014 a 17.00009,16.999963 0 0 1 -34.00018,0 17.00009,16.999963 0 1 1 34.00018,0" fill="#27ae60" fill-rule="evenodd"/>
   <path d="m 429.00008,451.01014 a 17.00009,16.999963 0 0 1 -34.00018,0 17.00009,16.999963 0 1 1 34.00018,0" fill="#f1c40f" fill-rule="evenodd"/>
   <g>
    <path d="m 199.00009,451.01014 a 17.00009,16.999963 0 0 1 -34.00018,0 17.00009,16.999963 0 1 1 34.00018,0" opacity="0.5" fill="#f9f9f6" fill-rule="evenodd"/>
    <path d="m 171,442 h 10 v 8 h -10 z" opacity="0.5" fill="#f9f9f6"/>
    <path d="m 171,452 h 10 v 8 h -10 z" opacity="0.5" fill="#f9f9f6"/>
    <path d="m 184,442 h 10 v 8 h -10 z" fill="#f9f9f6"/>
    <path d="m 184,452 h 10 v 8 h -10 z" opacity="0.5" fill="#f9f9f6"/>
   </g>
   <g>
    <path d="m 475.00009,451.01014 a 17.00009,16.999963 0 0 1 -34.00018,0 17.00009,16.999963 0 1 1 34.00018,0" opacity="0.5" fill="#f9f9f6" fill-rule="evenodd"/>
    <path d="m 454.57,456.71 c 0,1.262 -1.023,2.286 -2.286,2.286 -1.262,0 -2.286,-1.023 -2.286,-2.286 0,-1.262 1.023,-2.286 2.286,-2.286 1.262,0 2.286,1.023 2.286,2.286" fill="#f9f9f9" fill-rule="evenodd"/>
    <path d="m 454.57,451 c 0,1.262 -1.023,2.286 -2.286,2.286 -1.262,0 -2.286,-1.023 -2.286,-2.286 0,-1.262 1.023,-2.286 2.286,-2.286 1.262,0 2.286,1.023 2.286,2.286" fill="#f9f9f9" fill-rule="evenodd"/>
    <path d="m 454.57,445.29 c 0,1.262 -1.023,2.286 -2.286,2.286 -1.262,0 -2.286,-1.023 -2.286,-2.286 0,-1.262 1.023,-2.286 2.286,-2.286 1.262,0 2.286,1.023 2.286,2.286" fill="#f9f9f9" fill-rule="evenodd"/>
    <path d="m 460.28,456.71 c 0,1.262 -1.023,2.286 -2.286,2.286 -1.262,0 -2.286,-1.023 -2.286,-2.286 0,-1.262 1.023,-2.286 2.286,-2.286 1.262,0 2.286,1.023 2.286,2.286" fill="#f9f9f9" fill-rule="evenodd"/>
    <path d="m 460.28,451 c 0,1.262 -1.023,2.286 -2.286,2.286 -1.262,0 -2.286,-1.023 -2.286,-2.286 0,-1.262 1.023,-2.286 2.286,-2.286 1.262,0 2.286,1.023 2.286,2.286" fill="#f9f9f9" fill-rule="evenodd"/>
    <path d="m 460.28,445.29 c 0,1.262 -1.023,2.286 -2.286,2.286 -1.262,0 -2.286,-1.023 -2.286,-2.286 0,-1.262 1.023,-2.286 2.286,-2.286 1.262,0 2.286,1.023 2.286,2.286" fill="#f9f9f9" fill-rule="evenodd"/>
    <path d="m 466,456.71 c 0,1.262 -1.023,2.286 -2.286,2.286 -1.262,0 -2.286,-1.023 -2.286,-2.286 0,-1.262 1.023,-2.286 2.286,-2.286 1.262,0 2.286,1.023 2.286,2.286" fill="#f9f9f9" fill-rule="evenodd"/>
    <path d="m 466,451 c 0,1.262 -1.023,2.286 -2.286,2.286 -1.262,0 -2.286,-1.023 -2.286,-2.286 0,-1.262 1.023,-2.286 2.286,-2.286 1.262,0 2.286,1.023 2.286,2.286" fill="#f9f9f9" fill-rule="evenodd"/>
    <path d="m 466,445.29 c 0,1.262 -1.023,2.286 -2.286,2.286 -1.262,0 -2.286,-1.023 -2.286,-2.286 0,-1.262 1.023,-2.286 2.286,-2.286 1.262,0 2.286,1.023 2.286,2.286" fill="#f9f9f9" fill-rule="evenodd"/>
   </g>
  </g>
 </g>
 <path d="M 0 80 L 0 400 L 37.1875 400 C 38.745143 400 40 398.74514 40 397.1875 L 40 82.8125 C 40 81.254857 38.745143 80 37.1875 80 L 0 80 z " fill="#f9f9f9" fill-rule="evenodd" fill-opacity="0.2"/>
 <path d="m 640,80 0,320 -37.1875,0 C 601.25486,400 600,398.74514 600,397.1875 l 0,-314.375 C 600,81.254857 601.25486,80 602.8125,80 L 640,80 z" fill="#f9f9f9" fill-rule="evenodd" fill-opacity="0.2"/>
 <path d="m 620,225 0,10 -10,0 0,5 10,0 0,10 5,0 0,-10 10,0 0,-5 -10,0 0,-10 z" fill="#f9f9f9" fill-opacity="0.2"/>
</svg>
