<?xml version="1.0" encoding="UTF-8" standalone="no"?>
<!-- Created with Inkscape (http://www.inkscape.org/) -->

<svg
   xmlns:dc="http://purl.org/dc/elements/1.1/"
   xmlns:cc="http://creativecommons.org/ns#"
   xmlns:rdf="http://www.w3.org/1999/02/22-rdf-syntax-ns#"
   xmlns:svg="http://www.w3.org/2000/svg"
   xmlns="http://www.w3.org/2000/svg"
   xmlns:sodipodi="http://sodipodi.sourceforge.net/DTD/sodipodi-0.dtd"
   xmlns:inkscape="http://www.inkscape.org/namespaces/inkscape"
   width="1920"
   height="1080"
   viewBox="0 0 508 285.75"
   id="svg4381"
   version="1.1"
   inkscape:version="0.91+devel r"
   sodipodi:docname="nitrux.svg">
  <defs
     id="defs4383" />
  <sodipodi:namedview
     id="base"
     pagecolor="#ffffff"
     bordercolor="#666666"
     borderopacity="1.0"
     inkscape:pageopacity="0.0"
     inkscape:pageshadow="2"
     inkscape:zoom="0.35"
     inkscape:cx="843.54882"
     inkscape:cy="587.87322"
     inkscape:document-units="px"
     inkscape:current-layer="layer1"
     showgrid="true"
     fit-margin-top="0"
     fit-margin-left="0"
     fit-margin-right="0"
     fit-margin-bottom="0"
     units="px"
     inkscape:showpageshadow="false"
     borderlayer="true"
     inkscape:window-width="1366"
     inkscape:window-height="670"
     inkscape:window-x="-4"
     inkscape:window-y="29"
     inkscape:window-maximized="1">
    <inkscape:grid
       type="xygrid"
       id="grid4974" />
  </sodipodi:namedview>
  <metadata
     id="metadata4386">
    <rdf:RDF>
      <cc:Work
         rdf:about="">
        <dc:format>image/svg+xml</dc:format>
        <dc:type
           rdf:resource="http://purl.org/dc/dcmitype/StillImage" />
        <dc:title></dc:title>
      </cc:Work>
    </rdf:RDF>
  </metadata>
  <g
     inkscape:label="Capa 1"
     inkscape:groupmode="layer"
     id="layer1"
     transform="translate(136.07143,-8.9821424)">
    <rect
       style="opacity:1;fill:#231f20;fill-opacity:1;stroke:none;stroke-width:0.26458332"
       id="rect4976"
       width="508"
       height="148.16667"
       x="-136.07143"
       y="146.56548" />
    <path
       inkscape:connector-curvature="0"
       style="display:inline;fill:#231f20;fill-opacity:1;stroke:none;stroke-width:0.26458332"
       d="m 55.626381,62.526014 0,1.657637 0,8.659777 0,1.656347 0,0.55731 0,11.612624 0,0.91849 0,0.40268 0,28.078701 0.99771,0 0,-25.546734 c 0.0206,-1.727947 1.28531,-2.864077 2.97363,-2.934647 l 5.90309,0 21.48441,28.481381 1.24979,0 7.02678,0 0.75606,0 -7.78417,-10.31748 0,0 -13.7029,-18.163901 8.95468,0 c 6.94231,0 12.53113,-5.588817 12.53113,-12.531114 0,-6.942274 -5.58882,-12.531071 -12.53113,-12.531071 l -14.07437,0 -1.25492,0 -12.53112,0 z"
       id="path4446" />
    <path
       style="display:inline;fill:#231f20;fill-opacity:1;stroke:none;stroke-width:0.26458332"
       d="m 97.541551,62.526014 20.391909,27.025072 0.6249,-0.827497 3.275,-4.33902 0.62357,-0.828757 -15.86073,-21.019408 0,-0.0104 -7.806189,0 -1.24846,0 z m 44.775989,0 -40.40325,53.543566 1.24973,0 16.23354,-21.515664 c 0.74689,-0.70618 2.04477,-0.48369 2.58779,0.366357 0,0 0,0 0,0 l 15.95551,21.146707 1.24973,0 7.0476,0 0.75086,0 -0.75086,-0.99511 0,0 0,0 -19.76316,-26.194961 -0.45988,-0.60934 c -5.3e-4,-7.9e-4 0,0 0,0 -0.58685,-0.77042 -0.4787,-1.81675 -0.0286,-2.44225 l 0.26632,-0.35079 c 0.0419,-0.0532 0.0803,-0.10556 0.12338,-0.1611 l 0,0 17.19227,-22.784825 -1.24846,0 z"
       id="path4448"
       inkscape:connector-curvature="0" />
    <path
       style="display:inline;fill:#231f20;fill-opacity:1;stroke:none;stroke-width:0.26458332"
       d="m 20.908001,62.526014 0,1.662837 0,51.880729 0.99771,0 0,-0.007 5.65367,0 0,0.007 0.9977,0 0,-47.077972 0,-1.657637 z"
       id="path4450"
       inkscape:connector-curvature="0"
       sodipodi:nodetypes="ccccccccccc" />
    <path
       sodipodi:nodetypes="cccccccccccccccccccccccc"
       inkscape:connector-curvature="0"
       style="display:inline;fill:#231f20;fill-opacity:1;stroke:none;stroke-width:0.26458332"
       d="m 16.584611,62.526014 0,0.997697 4.76378,6.314907 0,0.004 0,0 1.24973,0 13.96269,0 c 0.87499,0.0232 1.70721,0.72529 1.70575,1.63945 l 0,44.587582 0.99771,0 0,-0.007 5.65366,0 0,0.007 0.99771,0 0,-44.587582 c 0,-0.91429 0.83056,-1.61645 1.70568,-1.63945 l 15.98671,0 0,-0.99771 -4.76644,-6.318804 -1.24973,0 -11.67622,0 -7.64908,0 -21.68455,0 z"
       id="path4452" />
    <rect
       ry="0"
       y="43.792969"
       x="162.42021"
       height="89.128418"
       width="89.128418"
       id="rect4454"
       style="display:inline;fill:#231f20;fill-opacity:1;stroke:none;stroke-width:0.26458332" />
    <path
       style="display:inline;fill:#231f20;fill-opacity:1;stroke:none;stroke-width:0.26458332"
       d="m -15.691449,62.525994 c 0,0.549087 0,1.098167 0,1.647257 l 0,6.001817 0,2.66835 0,1.656337 0,41.569825 2.26173,0 0,-33.523188 c -0.0153,-1.43124 2.01457,-2.3778 3.07141,-0.97682 l 26.02576,34.500008 1.24973,0 0,-10.32786 0,-43.215726 -0.99771,0 0,41.893236 z"
       id="path4456"
       inkscape:connector-curvature="0"
       sodipodi:nodetypes="cccccccccccccccc" />
    <path
       inkscape:connector-curvature="0"
       style="display:inline;fill:#231f20;fill-opacity:1;stroke:none;stroke-width:0.26458332"
       d="m 68.288141,62.526034 0,1.657647 0,17.465041 0,5.261367 0,10.036794 c 0,10.593967 8.52872,19.122697 19.1227,19.122697 10.59398,0 19.122699,-8.52873 19.122699,-19.122697 l 0,-10.036794 0,-5.261367 0,-19.122688 -0.99771,0 0,18.856368 0,5.527687 0,10.036794 c 0,10.041237 -8.083739,18.124987 -18.124989,18.124987 -4.36137,0 -8.35286,-1.52589 -11.47362,-4.07397 l 0,-36.674775 0,-0.0104 0,-1.647247 -7.64908,-10.139444 z"
       id="path4458" />
    <path
       inkscape:connector-curvature="0"
       id="path4460"
       d="m 178.56731,61.585434 0,1.647247 0,6.001827 0,2.66834 0,1.656347 0,41.569815 2.26174,0 0,-33.523188 c -0.0153,-1.43124 2.0143,-2.37786 3.07107,-0.97695 l 16.22703,21.511728 0.62489,0.82756 9.17419,12.16085 1.24974,0 0,-10.32786 0,-9.787357 15.17737,20.115217 1.24971,0 7.0476,0 0.75088,0 -0.75088,-0.99512 0,0 -19.76316,-26.194961 -0.45987,-0.60933 c 0,-8e-4 0,0 0,0 -0.5868,-0.77043 -0.47864,-1.81676 -0.0286,-2.44225 l 0.26633,-0.3508 c 0.0419,-0.0532 0.0803,-0.10555 0.12343,-0.16109 l 17.19223,-22.784835 -1.24841,0 0,0 -26.08196,34.563739 -26.0807,-34.563739 z m 7.38669,0 20.39192,27.025085 0.62489,-0.8275 3.27501,-4.339017 0.62357,-0.82883 -15.86066,-21.019348 0,-0.0104 -7.80626,0 -1.24847,0 z m 22.86019,31.609612 c 0.49705,-0.0266 1.00748,0.16056 1.36406,0.51701 l 0,9.766604 -4.90538,-6.501977 2.53715,-3.363337 c 0.28008,-0.26486 0.63801,-0.39882 1.00417,-0.4183 z"
       style="display:inline;fill:#fafafa;fill-opacity:1;stroke:none;stroke-width:0.26458332" />
    <path
       id="path4958"
       d="m 55.626381,189.52607 0,1.65764 0,8.65978 0,1.65635 0,0.55731 0,11.61263 0,0.91849 0,0.40268 0,28.07871 0.99771,0 0,-25.54674 c 0.0206,-1.72795 1.28531,-2.86408 2.97363,-2.93465 l 5.90309,0 21.48441,28.48139 1.24979,0 7.02678,0 0.75606,0 -7.78417,-10.31748 0,0 -13.7029,-18.16391 8.95468,0 c 6.94231,0 12.53113,-5.58882 12.53113,-12.53112 0,-6.94228 -5.58882,-12.53108 -12.53113,-12.53108 l -14.07437,0 -1.25492,0 -12.53112,0 z"
       style="display:inline;fill:#fafafa;fill-opacity:1;stroke:none;stroke-width:0.26458332"
       inkscape:connector-curvature="0" />
    <path
       inkscape:connector-curvature="0"
       id="path4960"
       d="m 97.541551,189.52607 20.391909,27.02509 0.6249,-0.8275 3.275,-4.33902 0.62357,-0.82876 -15.86073,-21.01942 0,-0.0104 -7.806189,0 -1.24846,0 z m 44.775989,0 -40.40325,53.54359 1.24973,0 16.23354,-21.51567 c 0.74689,-0.70618 2.04477,-0.48369 2.58779,0.36636 0,0 0,0 0,0 l 15.95551,21.14671 1.24973,0 7.0476,0 0.75086,0 -0.75086,-0.99511 0,0 0,0 -19.76316,-26.19497 -0.45988,-0.60934 c -5.3e-4,-7.9e-4 0,0 0,0 -0.58685,-0.77042 -0.4787,-1.81675 -0.0286,-2.44225 l 0.26632,-0.35079 c 0.0419,-0.0532 0.0803,-0.10556 0.12338,-0.1611 l 0,0 17.19227,-22.78484 -1.24846,0 z"
       style="display:inline;fill:#fafafa;fill-opacity:1;stroke:none;stroke-width:0.26458332" />
    <path
       sodipodi:nodetypes="ccccccccccc"
       inkscape:connector-curvature="0"
       id="path4962"
       d="m 20.908001,189.52607 0,1.66284 0,51.88075 0.99771,0 0,-0.007 5.65367,0 0,0.007 0.9977,0 0,-47.07799 0,-1.65764 z"
       style="display:inline;fill:#fafafa;fill-opacity:1;stroke:none;stroke-width:0.26458332" />
    <path
       id="path4964"
       d="m 16.584611,189.52607 0,0.9977 4.76378,6.31491 0,0.004 0,0 1.24973,0 13.96269,0 c 0.87499,0.0232 1.70721,0.72529 1.70575,1.63945 l 0,44.5876 0.99771,0 0,-0.007 5.65366,0 0,0.007 0.99771,0 0,-44.5876 c 0,-0.91429 0.83056,-1.61645 1.70568,-1.63945 l 15.98671,0 0,-0.99771 -4.76644,-6.31881 -1.24973,0 -11.67622,0 -7.64908,0 -21.68455,0 z"
       style="display:inline;fill:#fafafa;fill-opacity:1;stroke:none;stroke-width:0.26458332"
       inkscape:connector-curvature="0"
       sodipodi:nodetypes="cccccccccccccccccccccccc" />
    <rect
       style="display:inline;fill:#fafafa;fill-opacity:1;stroke:none;stroke-width:0.26458332"
       id="rect4966"
       width="89.128418"
       height="89.128418"
       x="162.42021"
       y="170.793"
       ry="0" />
    <path
       sodipodi:nodetypes="cccccccccccccccc"
       inkscape:connector-curvature="0"
       id="path4968"
       d="m -15.691449,189.52605 c 0,0.54909 0,1.09817 0,1.64726 l 0,6.00182 0,2.66835 0,1.65634 0,41.56984 2.26173,0 0,-33.5232 c -0.0153,-1.43124 2.01457,-2.3778 3.07141,-0.97682 l 26.02576,34.50002 1.24973,0 0,-10.32786 0,-43.21575 -0.99771,0 0,41.89326 z"
       style="display:inline;fill:#fafafa;fill-opacity:1;stroke:none;stroke-width:0.26458332" />
    <path
       id="path4970"
       d="m 68.288141,189.52609 0,1.65765 0,17.46505 0,5.26137 0,10.0368 c 0,10.59397 8.52872,19.1227 19.1227,19.1227 10.59398,0 19.122699,-8.52873 19.122699,-19.1227 l 0,-10.0368 0,-5.26137 0,-19.1227 -0.99771,0 0,18.85638 0,5.52769 0,10.0368 c 0,10.04124 -8.083739,18.12499 -18.124989,18.12499 -4.36137,0 -8.35286,-1.52589 -11.47362,-4.07397 l 0,-36.67479 0,-0.0104 0,-1.64725 -7.64908,-10.13945 z"
       style="display:inline;fill:#fafafa;fill-opacity:1;stroke:none;stroke-width:0.26458332"
       inkscape:connector-curvature="0" />
    <path
       style="display:inline;fill:#231f20;fill-opacity:1;stroke:none;stroke-width:0.26458332"
       d="m 178.56731,188.58549 0,1.64725 0,6.00183 0,2.66834 0,1.65635 0,41.56983 2.26174,0 0,-33.5232 c -0.0153,-1.43124 2.0143,-2.37786 3.07107,-0.97695 l 16.22703,21.51174 0.62489,0.82756 9.17419,12.16085 1.24974,0 0,-10.32786 0,-9.78736 15.17737,20.11522 1.24971,0 7.0476,0 0.75088,0 -0.75088,-0.99512 0,0 -19.76316,-26.19497 -0.45987,-0.60933 c 0,-8e-4 0,0 0,0 -0.5868,-0.77043 -0.47864,-1.81676 -0.0286,-2.44225 l 0.26633,-0.3508 c 0.0419,-0.0532 0.0803,-0.10555 0.12343,-0.16109 l 17.19223,-22.78485 -1.24841,0 0,0 -26.08196,34.56376 -26.0807,-34.56376 z m 7.38669,0 20.39192,27.0251 0.62489,-0.8275 3.27501,-4.33902 0.62357,-0.82883 -15.86066,-21.01936 0,-0.0104 -7.80626,0 -1.24847,0 z m 22.86019,31.60963 c 0.49705,-0.0266 1.00748,0.16056 1.36406,0.51701 l 0,9.76661 -4.90538,-6.50198 2.53715,-3.36334 c 0.28008,-0.26486 0.63801,-0.39882 1.00417,-0.4183 z"
       id="path4972"
       inkscape:connector-curvature="0" />
  </g>
</svg>
