<?xml version="1.0" encoding="UTF-8" standalone="no"?>
<!-- Created with Inkscape (http://www.inkscape.org/) -->

<svg
   xmlns:dc="http://purl.org/dc/elements/1.1/"
   xmlns:cc="http://creativecommons.org/ns#"
   xmlns:rdf="http://www.w3.org/1999/02/22-rdf-syntax-ns#"
   xmlns:svg="http://www.w3.org/2000/svg"
   xmlns="http://www.w3.org/2000/svg"
   xmlns:sodipodi="http://sodipodi.sourceforge.net/DTD/sodipodi-0.dtd"
   xmlns:inkscape="http://www.inkscape.org/namespaces/inkscape"
   width="256mm"
   height="256mm"
   id="svg2"
   version="1.1"
   inkscape:version="0.91+devel r"
   viewBox="0 0 907.0866 907.08663"
   sodipodi:docname="ozonos.svg"
   inkscape:export-filename="/home/uri/dibujo.png"
   inkscape:export-xdpi="90"
   inkscape:export-ydpi="90">
  <defs
     id="defs4" />
  <sodipodi:namedview
     id="base"
     pagecolor="#ffffff"
     bordercolor="#666666"
     borderopacity="1.0"
     inkscape:pageopacity="0.0"
     inkscape:pageshadow="2"
     inkscape:zoom="0.35355339"
     inkscape:cx="-48.806647"
     inkscape:cy="232.83501"
     inkscape:document-units="px"
     inkscape:current-layer="layer1"
     showgrid="false"
     inkscape:showpageshadow="false"
     borderlayer="true"
     inkscape:snap-global="false"
     inkscape:window-width="1366"
     inkscape:window-height="670"
     inkscape:window-x="-4"
     inkscape:window-y="29"
     inkscape:window-maximized="1"
     showguides="true">
    <inkscape:grid
       type="xygrid"
       id="grid3369" />
  </sodipodi:namedview>
  <metadata
     id="metadata7">
    <rdf:RDF>
      <cc:Work
         rdf:about="">
        <dc:format>image/svg+xml</dc:format>
        <dc:type
           rdf:resource="http://purl.org/dc/dcmitype/StillImage" />
        <dc:title />
      </cc:Work>
    </rdf:RDF>
  </metadata>
  <g
     inkscape:label="Capa 1"
     inkscape:groupmode="layer"
     id="layer1"
     transform="translate(0,-145.27558)">
    <path
       style="fill:#cccccc;fill-opacity:1;stroke:none"
       d="m -1.5e-5,780.89277 0,271.46873 452.664055,0 1.75782,0 452.66407,0 0,-271.46644 -452.66407,0 0,-0.002 -454.421875,0 z"
       id="rect4327"
       inkscape:connector-curvature="0" />
    <path
       inkscape:connector-curvature="0"
       id="path4163"
       d="m -1.5e-5,145.27558 0,271.46873 452.664055,0 1.75782,0 452.66407,0 0,-271.46644 -452.66407,0 0,-0.002 -454.421875,0 z"
       style="fill:#ffffff;fill-opacity:1;stroke:none" />
    <path
       style="fill:#141515;fill-opacity:1;stroke:none"
       d="M 0 266.08789 L 0 640.99805 L 452.66406 640.99805 L 454.42188 640.99805 L 907.08594 640.99805 L 907.08594 266.08789 L 454.42188 266.08789 L 452.66406 266.08789 L 0 266.08789 z "
       transform="translate(-1.5e-5,145.27558)"
       id="rect4329" />
    <g
       id="g3539"
       transform="translate(76.807967,2.0489795e-4)">
      <path
         id="path4167"
         d="m 300.68324,207.22911 c -4.50867,0.15671 -8.06292,1.43581 -10.48437,3.85547 -3.59101,3.62396 -4.71689,9.7086 -3.28906,17.78125 1.42803,8.07267 5.40824,18.12706 11.63086,29.38086 -5.21021,-19.44459 -13.00704,-54.49526 22.19726,-40.21875 a 16.874383,16.874383 0 0 1 2.28125,-5.61328 c -7.85811,-3.23523 -14.74754,-4.99205 -20.3457,-5.18359 -0.68255,-0.0234 -1.34614,-0.0242 -1.99024,-0.002 z m 28.03516,8.5586 a 10.243043,10.243043 0 0 0 -0.25977,0.42773 c 0.0845,-0.14364 0.16834,-0.28841 0.25977,-0.42773 z m -0.44727,0.75586 a 10.243043,10.243043 0 0 0 -0.2539,0.50195 c 0.08,-0.16985 0.16477,-0.33673 0.2539,-0.50195 z m -0.36328,0.74609 a 10.243043,10.243043 0 0 0 -0.23242,0.55664 c 0.0701,-0.18825 0.15156,-0.37277 0.23242,-0.55664 z m -0.23242,0.55664 a 10.243043,10.243043 0 0 0 -0.38086,1.29297 c 0.10085,-0.43807 0.22404,-0.87164 0.38086,-1.29297 z m -0.44531,1.57617 a 10.243043,10.243043 0 0 0 -0.0899,0.52735 c 0.0259,-0.17664 0.0547,-0.35231 0.0899,-0.52735 z m -0.13867,0.93164 a 10.243043,10.243043 0 0 0 -0.0469,0.51758 c 0.009,-0.17327 0.0286,-0.34506 0.0469,-0.51758 z"
         style="fill:#333333;fill-opacity:1;fill-rule:evenodd;stroke:none"
         inkscape:connector-curvature="0" />
      <path
         id="path4169"
         d="m 346.85903,224.99279 c -0.0677,0.18223 -0.14642,0.35917 -0.22461,0.53711 a 10.243043,10.243043 0 0 0 0.22461,-0.53711 z m -0.34766,0.81445 c -0.0838,0.17612 -0.17387,0.35044 -0.26758,0.52148 a 10.243043,10.243043 0 0 0 0.26758,-0.52148 z m -0.4043,0.76172 c -0.10353,0.17748 -0.20834,0.35438 -0.32226,0.52539 a 10.243043,10.243043 0 0 0 0.32226,-0.52539 z m -0.32226,0.52539 c -0.24887,0.37356 -0.52723,0.72618 -0.82227,1.06445 a 10.243043,10.243043 0 0 0 0.82227,-1.06445 z m -1.02149,1.29101 c -0.11404,0.12331 -0.23361,0.24179 -0.35351,0.35938 a 10.243043,10.243043 0 0 0 0.35351,-0.35938 z m 7.73633,0.2461 a 16.874383,16.874383 0 0 1 -3.66797,5.0625 c 12.15682,8.22419 25.39471,18.73155 38.4668,30.50391 l 0.0351,0 6.84571,-2.66016 c -13.95153,-12.66786 -28.29396,-24.01436 -41.67964,-32.90625 z m -8.46484,0.46289 c -0.086,0.0763 -0.17122,0.15323 -0.25977,0.22656 a 10.243043,10.243043 0 0 0 0.25977,-0.22656 z m -0.90235,0.7168 c -0.0325,0.0227 -0.063,0.048 -0.0957,0.0703 a 10.243043,10.243043 0 0 0 0.0957,-0.0703 z"
         style="fill:#333333;fill-opacity:1;fill-rule:evenodd;stroke:none"
         inkscape:connector-curvature="0" />
      <path
         id="path4171"
         d="m 375.05271,335.26191 c 12.96852,8.68832 25.08617,15.16668 35.24415,18.7832 13.26749,4.72339 23.15461,4.56321 28.19921,-0.45898 3.55096,-3.55184 4.71444,-9.48909 3.40235,-17.36328 -0.0481,-0.28863 -0.11901,-0.59391 -0.17774,-0.89063 L 423.541,340.6662 c -2.14319,13.96917 -36.51955,1.50586 -48.48829,-5.40429 z"
         style="fill:#333333;fill-opacity:1;fill-rule:evenodd;stroke:none"
         inkscape:connector-curvature="0" />
      <path
         style="fill:#34d0cc;fill-opacity:1;stroke:none"
         d="m 325.16207,209.66392 a 16.874383,16.874383 0 0 1 12.10381,-5.11834 16.874383,16.874383 0 0 1 16.87533,16.87532 16.874383,16.874383 0 0 1 -16.87415,16.87427 16.874383,16.874383 0 0 1 -16.87532,-16.87545 16.874383,16.874383 0 0 1 4.77033,-11.7558 z m 4.75653,4.61921 a 10.243043,10.243043 0 0 0 -2.89395,7.13657 10.243043,10.243043 0 0 0 10.24243,10.24253 10.243043,10.243043 0 0 0 10.24242,-10.24252 10.243043,10.243043 0 0 0 -10.24242,-10.24242 10.243043,10.243043 0 0 0 -7.34848,3.10584 z"
         id="path4173"
         inkscape:connector-curvature="0" />
      <path
         id="path4177"
         d="m 266.78874,269.40092 c -16.92,0 -28.98,15.12 -28.98,31.32 0,16.38 12.06,31.32 28.98,31.32 16.92,0 29.16,-14.94 29.16,-31.32 0,-16.2 -12.24,-31.32 -29.16,-31.32 z m 0,57.6 c -14.04,0 -23.94,-12.78 -23.94,-26.28 0,-13.32 9.9,-26.1 23.94,-26.1 14.22,0 23.94,12.78 23.94,26.1 0,13.5 -9.72,26.28 -23.94,26.28 z"
         inkscape:connector-curvature="0"
         style="font-size:180px;font-style:normal;font-variant:normal;font-weight:normal;font-stretch:normal;line-height:125%;letter-spacing:0px;word-spacing:0px;fill:#333333;fill-opacity:1;stroke:none;font-family:Print Clearly;-inkscape-font-specification:Print Clearly" />
      <path
         id="path4179"
         d="m 361.29155,275.16092 c 0,-1.26 -1.26,-2.52 -2.52,-2.52 l -41.76,0 c -1.26,0 -2.52,1.26 -2.52,2.52 0,1.44 1.26,2.52 2.52,2.52 l 36.18,0 -39.96,47.52 c -0.36,0.36 -0.54,0.9 -0.54,1.62 0,1.26 1.08,2.52 2.52,2.52 l 41.58,0 c 1.44,0 2.52,-1.26 2.52,-2.52 0,-1.44 -1.08,-2.52 -2.52,-2.52 l -36.18,0 39.96,-47.52 c 0.36,-0.36 0.72,-0.9 0.72,-1.62 z"
         inkscape:connector-curvature="0"
         style="font-size:180px;font-style:normal;font-variant:normal;font-weight:normal;font-stretch:normal;line-height:125%;letter-spacing:0px;word-spacing:0px;fill:#333333;fill-opacity:1;stroke:none;font-family:Print Clearly;-inkscape-font-specification:Print Clearly" />
      <path
         id="path4182"
         d="m 413.3903,269.40092 c -16.92,0 -28.98,15.12 -28.98,31.32 0,16.38 12.06,31.32 28.98,31.32 16.92,0 29.16,-14.94 29.16,-31.32 0,-16.2 -12.24,-31.32 -29.16,-31.32 z m 0,57.6 c -14.04,0 -23.94,-12.78 -23.94,-26.28 0,-13.32 9.9,-26.1 23.94,-26.1 14.22,0 23.94,12.78 23.94,26.1 0,13.5 -9.72,26.28 -23.94,26.28 z"
         inkscape:connector-curvature="0"
         style="font-size:180px;font-style:normal;font-variant:normal;font-weight:normal;font-stretch:normal;line-height:125%;letter-spacing:0px;word-spacing:0px;fill:#333333;fill-opacity:1;stroke:none;font-family:Print Clearly;-inkscape-font-specification:Print Clearly" />
      <path
         id="path4184"
         d="m 492.44124,269.40092 c -9,0 -16.38,5.04 -20.88,12.6 l 0,-8.82 c 0,-1.44 -1.08,-2.52 -2.52,-2.52 -1.44,0 -2.52,1.08 -2.52,2.52 l 0,55.08 c 0,1.44 1.08,2.52 2.52,2.52 1.44,0 2.52,-1.08 2.52,-2.52 l 0,-25.2 c 0,-15.12 5.76,-28.62 20.88,-28.62 12.06,0 18.18,10.62 18.18,21.6 l 0,32.04 c 0,1.44 1.08,2.52 2.52,2.52 1.26,0 2.52,-1.08 2.52,-2.52 l 0,-32.04 c 0,-13.68 -8.46,-26.64 -23.22,-26.64 z"
         inkscape:connector-curvature="0"
         style="font-size:180px;font-style:normal;font-variant:normal;font-weight:normal;font-stretch:normal;line-height:125%;letter-spacing:0px;word-spacing:0px;fill:#333333;fill-opacity:1;stroke:none;font-family:Print Clearly;-inkscape-font-specification:Print Clearly" />
    </g>
    <path
       id="path3489"
       d="m 377.49121,525.03792 c -4.50868,0.15671 -8.06293,1.43581 -10.48437,3.85547 -3.59101,3.62396 -4.7169,9.7086 -3.28907,17.78125 1.42803,8.07267 5.40824,18.12706 11.63086,29.38086 -5.21021,-19.44459 -13.00704,-54.49526 22.19726,-40.21875 a 16.874383,16.874383 0 0 1 2.28125,-5.61328 c -7.85811,-3.23523 -14.74753,-4.99205 -20.3457,-5.18359 -0.68254,-0.0234 -1.34613,-0.0242 -1.99024,-0.002 z m 28.03516,8.5586 a 10.243043,10.243043 0 0 0 -0.25977,0.42773 c 0.0845,-0.14364 0.16833,-0.28841 0.25977,-0.42773 z m -0.44727,0.75586 a 10.243043,10.243043 0 0 0 -0.25391,0.50195 c 0.08,-0.16985 0.16477,-0.33673 0.25391,-0.50195 z m -0.36328,0.74609 a 10.243043,10.243043 0 0 0 -0.23242,0.55664 c 0.0701,-0.18825 0.15156,-0.37277 0.23242,-0.55664 z m -0.23242,0.55664 a 10.243043,10.243043 0 0 0 -0.38086,1.29297 c 0.10085,-0.43807 0.22404,-0.87164 0.38086,-1.29297 z m -0.44531,1.57617 a 10.243043,10.243043 0 0 0 -0.0899,0.52735 c 0.0259,-0.17664 0.0547,-0.35231 0.0899,-0.52735 z m -0.13867,0.93164 a 10.243043,10.243043 0 0 0 -0.0469,0.51758 c 0.009,-0.17327 0.0286,-0.34506 0.0469,-0.51758 z"
       style="fill:#f9f9f9;fill-opacity:1;fill-rule:evenodd;stroke:none"
       inkscape:connector-curvature="0" />
    <path
       id="path3491"
       d="m 423.667,542.8016 c -0.0677,0.18223 -0.14643,0.35917 -0.22461,0.53711 a 10.243043,10.243043 0 0 0 0.22461,-0.53711 z m -0.34766,0.81445 c -0.0838,0.17612 -0.17388,0.35044 -0.26759,0.52148 a 10.243043,10.243043 0 0 0 0.26759,-0.52148 z m -0.40431,0.76172 c -0.10353,0.17748 -0.20834,0.35438 -0.32226,0.52539 a 10.243043,10.243043 0 0 0 0.32226,-0.52539 z m -0.32226,0.52539 c -0.24887,0.37356 -0.52722,0.72618 -0.82227,1.06445 a 10.243043,10.243043 0 0 0 0.82227,-1.06445 z m -1.02149,1.29101 c -0.11403,0.12331 -0.23361,0.24179 -0.35351,0.35938 a 10.243043,10.243043 0 0 0 0.35351,-0.35938 z m 7.73634,0.2461 a 16.874383,16.874383 0 0 1 -3.66798,5.0625 c 12.15682,8.22419 25.39471,18.73155 38.4668,30.50391 l 0.0351,0 6.84571,-2.66016 c -13.95153,-12.66786 -28.29396,-24.01436 -41.67964,-32.90625 z m -8.46484,0.46289 c -0.086,0.0763 -0.17123,0.15323 -0.25977,0.22656 a 10.243043,10.243043 0 0 0 0.25977,-0.22656 z m -0.90236,0.7168 c -0.0325,0.0227 -0.063,0.048 -0.0957,0.0703 a 10.243043,10.243043 0 0 0 0.0957,-0.0703 z"
       style="fill:#f9f9f9;fill-opacity:1;fill-rule:evenodd;stroke:none"
       inkscape:connector-curvature="0" />
    <path
       inkscape:connector-curvature="0"
       id="path3493"
       d="m 451.86068,653.07072 c 12.96852,8.68832 25.08616,15.16668 35.24414,18.7832 13.26749,4.72339 23.15461,4.56321 28.19921,-0.45898 3.55096,-3.55184 4.71444,-9.48909 3.40235,-17.36328 -0.0481,-0.28863 -0.11901,-0.59391 -0.17774,-0.89063 l -18.17967,5.33398 c -2.14319,13.96917 -36.51955,1.50586 -48.48829,-5.40429 z"
       style="fill:#f9f9f9;fill-opacity:1;fill-rule:evenodd;stroke:none" />
    <path
       style="fill:#34d0cc;fill-opacity:1;stroke:none"
       d="M 414.07422 377.07812 A 16.874383 16.874383 0 0 0 401.9707 382.19727 A 16.874383 16.874383 0 0 0 397.19922 393.95312 A 16.874383 16.874383 0 0 0 414.07422 410.82812 A 16.874383 16.874383 0 0 0 430.94922 393.95508 A 16.874383 16.874383 0 0 0 414.07422 377.07812 z M 414.07422 381.07812 A 12.874479 12.874479 0 0 1 426.94922 393.95312 A 12.874479 12.874479 0 0 1 414.07422 406.82812 A 12.874479 12.874479 0 0 1 401.19922 393.95312 A 12.874479 12.874479 0 0 1 404.83984 384.98438 A 12.874479 12.874479 0 0 1 414.07422 381.07812 z "
       transform="translate(-1.5e-5,145.27558)"
       id="path3495" />
    <path
       id="path3497"
       d="m 343.59671,587.20973 c -16.92001,0 -28.98,15.12 -28.98,31.32 0,16.38 12.06,31.32 28.98,31.32 16.91999,0 29.15999,-14.94 29.15999,-31.32 0,-16.2 -12.24,-31.32 -29.15999,-31.32 z m 0,57.6 c -14.04,0 -23.94001,-12.78 -23.94001,-26.28 0,-13.32 9.90001,-26.1 23.94001,-26.1 14.22,0 23.93999,12.78 23.93999,26.1 0,13.5 -9.72,26.28 -23.93999,26.28 z"
       inkscape:connector-curvature="0"
       style="font-size:180px;font-style:normal;font-variant:normal;font-weight:normal;font-stretch:normal;line-height:125%;letter-spacing:0px;word-spacing:0px;fill:#f9f9f9;fill-opacity:1;stroke:none;font-family:Print Clearly;-inkscape-font-specification:Print Clearly" />
    <path
       id="path3499"
       d="m 438.09951,592.96973 c 0,-1.26 -1.26,-2.52 -2.51999,-2.52 l -41.76,0 c -1.26,0 -2.52,1.26 -2.52,2.52 0,1.44 1.26,2.52 2.52,2.52 l 36.17999,0 -39.95999,47.52 c -0.36,0.36 -0.54001,0.9 -0.54001,1.62 0,1.26 1.08001,2.52 2.52,2.52 l 41.58,0 c 1.44,0 2.52,-1.26 2.52,-2.52 0,-1.44 -1.08,-2.52 -2.52,-2.52 l -36.18,0 39.96,-47.52 c 0.36,-0.36 0.72,-0.9 0.72,-1.62 z"
       inkscape:connector-curvature="0"
       style="font-size:180px;font-style:normal;font-variant:normal;font-weight:normal;font-stretch:normal;line-height:125%;letter-spacing:0px;word-spacing:0px;fill:#f9f9f9;fill-opacity:1;stroke:none;font-family:Print Clearly;-inkscape-font-specification:Print Clearly" />
    <path
       id="path3501"
       d="m 490.19826,587.20973 c -16.91999,0 -28.98,15.12 -28.98,31.32 0,16.38 12.06001,31.32 28.98,31.32 16.92001,0 29.16001,-14.94 29.16001,-31.32 0,-16.2 -12.24,-31.32 -29.16001,-31.32 z m 0,57.6 c -14.03999,0 -23.93999,-12.78 -23.93999,-26.28 0,-13.32 9.9,-26.1 23.93999,-26.1 14.22001,0 23.94001,12.78 23.94001,26.1 0,13.5 -9.72,26.28 -23.94001,26.28 z"
       inkscape:connector-curvature="0"
       style="font-size:180px;font-style:normal;font-variant:normal;font-weight:normal;font-stretch:normal;line-height:125%;letter-spacing:0px;word-spacing:0px;fill:#f9f9f9;fill-opacity:1;stroke:none;font-family:Print Clearly;-inkscape-font-specification:Print Clearly" />
    <path
       id="path3503"
       d="m 569.2492,587.20973 c -9,0 -16.38,5.04 -20.88,12.6 l 0,-8.82 c 0,-1.44 -1.07999,-2.52 -2.52,-2.52 -1.43999,0 -2.52,1.08 -2.52,2.52 l 0,55.08 c 0,1.44 1.08001,2.52 2.52,2.52 1.44001,0 2.52,-1.08 2.52,-2.52 l 0,-25.2 c 0,-15.12 5.76,-28.62 20.88,-28.62 12.06001,0 18.18001,10.62 18.18001,21.6 l 0,32.04 c 0,1.44 1.07999,2.52 2.51999,2.52 1.26,0 2.52,-1.08 2.52,-2.52 l 0,-32.04 c 0,-13.68 -8.45999,-26.64 -23.22,-26.64 z"
       inkscape:connector-curvature="0"
       style="font-size:180px;font-style:normal;font-variant:normal;font-weight:normal;font-stretch:normal;line-height:125%;letter-spacing:0px;word-spacing:0px;fill:#f9f9f9;fill-opacity:1;stroke:none;font-family:Print Clearly;-inkscape-font-specification:Print Clearly" />
    <g
       id="g3467"
       transform="matrix(0.5,0,0,0.5,825.90502,402.04297)">
      <rect
         ry="160"
         rx="0"
         y="869.16833"
         x="-904.72412"
         height="320"
         width="320"
         id="rect3454"
         style="opacity:1;fill:#333333;fill-opacity:1;stroke:none" />
      <g
         transform="matrix(1.994078,0,0,1.994078,-162.45328,-1005.5135)"
         id="g3450">
        <path
           inkscape:connector-curvature="0"
           style="fill:#f9f9f9;fill-opacity:1;fill-rule:evenodd;stroke:none"
           d="m -309.67023,982.00432 a 6.679659,6.679659 0 0 0 -4.79102,2.02539 6.679659,6.679659 0 0 0 -0.84766,1.08399 c -6.1469,-2.53164 -10.77299,-2.73901 -12.99218,-0.52149 -1.42149,1.43452 -1.86796,3.84354 -1.30274,7.03906 0.56526,3.19553 2.1403,7.1761 4.60352,11.63083 -2.06246,-7.69715 -5.14711,-21.57386 8.78906,-15.92184 a 6.679659,6.679659 0 0 0 -0.13867,1.34375 6.679659,6.679659 0 0 0 6.67969,6.67969 6.679659,6.679659 0 0 0 4.57812,-1.82227 c 6.92635,4.68439 14.74471,11.24327 21.9668,18.46287 26.29746,26.929 32.21951,54.5736 -2.49805,34.5293 6.92154,5.1632 13.49426,8.9603 18.74609,10.8301 5.25193,1.8698 9.16716,1.8044 11.16407,-0.1836 1.40572,-1.406 1.86704,-3.7541 1.34765,-6.8711 -0.51938,-3.117 -2.01751,-7.0001 -4.38281,-11.3535 -4.73076,-8.707 -13.01976,-19.307 -22.52148,-28.8086 -7.26244,-7.2598 -15.16579,-13.8246 -22.3711,-18.60742 a 6.679659,6.679659 0 0 0 0.65039,-2.85547 6.679659,6.679659 0 0 0 -6.67968,-6.67969 z m 0,2.62305 a 4.0546688,4.0546688 0 0 1 4.05664,4.05469 4.0546688,4.0546688 0 0 1 -0.25782,1.41406 c -10e-4,0.002 -0.003,0.006 -0.004,0.008 -0.0243,0.0648 -0.0525,0.12791 -0.0801,0.19141 a 4.0546688,4.0546688 0 0 1 -0.0586,0.13281 c -0.0306,0.0643 -0.0637,0.12675 -0.0977,0.18945 a 4.0546688,4.0546688 0 0 1 -0.0664,0.11914 c -0.0384,0.0651 -0.0773,0.13046 -0.11914,0.19336 -0.003,0.003 -0.006,0.008 -0.01,0.0117 -0.0982,0.14627 -0.20614,0.28354 -0.32227,0.41602 a 4.0546688,4.0546688 0 0 1 -0.0723,0.084 c -0.0472,0.051 -0.0987,0.10004 -0.14844,0.14844 a 4.0546688,4.0546688 0 0 1 -0.12891,0.11914 c -0.0396,0.0354 -0.0804,0.0719 -0.12109,0.10547 a 4.0546688,4.0546688 0 0 1 -0.25586,0.19336 4.0546688,4.0546688 0 0 1 -0.0293,0.0234 c -0.002,10e-4 -0.002,0.003 -0.004,0.004 a 4.0546688,4.0546688 0 0 1 -2.28125,0.70313 4.0546688,4.0546688 0 0 1 -4.05664,-4.05469 4.0546688,4.0546688 0 0 1 0.01,-0.22461 c 0.003,-0.0577 0.01,-0.11438 0.0156,-0.17188 a 4.0546688,4.0546688 0 0 1 0.0254,-0.20117 c 0.009,-0.0601 0.0176,-0.12009 0.0293,-0.17969 a 4.0546688,4.0546688 0 0 1 0.0312,-0.14062 c 0.0565,-0.24129 0.13538,-0.47595 0.23438,-0.70313 a 4.0546688,4.0546688 0 0 1 0.0508,-0.11718 c 0.0316,-0.0667 0.0683,-0.13442 0.10352,-0.19922 a 4.0546688,4.0546688 0 0 1 0.0605,-0.10938 c 0.036,-0.0616 0.072,-0.12399 0.11133,-0.18359 a 4.0546688,4.0546688 0 0 1 0.004,-0.004 c 0.0563,-0.0855 0.11678,-0.169 0.17968,-0.25 a 4.0546688,4.0546688 0 0 1 0.29297,-0.34179 4.0546688,4.0546688 0 0 1 2.90821,-1.23047 z m -5.34961,30.16403 8.22851,31.1407 6.50977,-13.8633 14.71679,-4.2461 -29.45507,-13.0313 z"
           id="path4299-0" />
        <path
           inkscape:connector-curvature="0"
           style="fill:#35cbc4;fill-opacity:1;fill-rule:evenodd;stroke:none"
           d="m -309.67023,982.00432 a 6.6796588,6.6796588 0 0 0 -4.79102,2.02539 6.6796588,6.6796588 0 0 0 -0.84766,1.08399 c -0.0113,-0.005 -0.0219,-0.007 -0.0332,-0.0117 -0.42232,0.67148 -0.73542,1.42095 -0.89844,2.22656 0.0102,0.004 0.0191,0.008 0.0293,0.0117 a 6.6796588,6.6796588 0 0 0 -0.13867,1.34375 6.6796588,6.6796588 0 0 0 6.67969,6.67969 6.6796588,6.6796588 0 0 0 4.57812,-1.82227 c 0.009,0.006 0.0186,0.0117 0.0273,0.0176 0.60152,-0.56654 1.09579,-1.24239 1.45508,-1.99805 -0.0103,-0.007 -0.0209,-0.0146 -0.0312,-0.0215 a 6.6796588,6.6796588 0 0 0 0.65039,-2.85547 6.6796588,6.6796588 0 0 0 -6.67968,-6.67969 z m 0,2.62305 a 4.0546687,4.0546687 0 0 1 4.05664,4.05469 4.0546687,4.0546687 0 0 1 -0.25782,1.41406 c -10e-4,0.002 -0.003,0.006 -0.004,0.008 -0.0243,0.0648 -0.0525,0.12791 -0.0801,0.19141 a 4.0546687,4.0546687 0 0 1 -0.0586,0.13281 c -0.0306,0.0643 -0.0637,0.12675 -0.0977,0.18945 a 4.0546687,4.0546687 0 0 1 -0.0664,0.11914 c -0.0384,0.0651 -0.0773,0.13046 -0.11914,0.19336 -0.003,0.003 -0.006,0.008 -0.01,0.0117 -0.0982,0.14627 -0.20614,0.28354 -0.32227,0.41602 a 4.0546687,4.0546687 0 0 1 -0.0723,0.084 c -0.0472,0.051 -0.0987,0.10004 -0.14844,0.14844 a 4.0546687,4.0546687 0 0 1 -0.12891,0.11914 c -0.0396,0.0354 -0.0804,0.0719 -0.12109,0.10547 a 4.0546687,4.0546687 0 0 1 -0.25586,0.19336 4.0546687,4.0546687 0 0 1 -0.0293,0.0234 c -0.002,10e-4 -0.002,0.003 -0.004,0.004 a 4.0546687,4.0546687 0 0 1 -2.28125,0.70313 4.0546687,4.0546687 0 0 1 -4.05664,-4.05469 4.0546687,4.0546687 0 0 1 0.01,-0.22461 c 0.003,-0.0577 0.01,-0.11438 0.0156,-0.17188 a 4.0546687,4.0546687 0 0 1 0.0254,-0.20117 c 0.009,-0.0601 0.0176,-0.12009 0.0293,-0.17969 a 4.0546687,4.0546687 0 0 1 0.0312,-0.14062 c 0.0565,-0.24129 0.13538,-0.47595 0.23438,-0.70313 a 4.0546687,4.0546687 0 0 1 0.0508,-0.11718 c 0.0316,-0.0667 0.0683,-0.13442 0.10352,-0.19922 a 4.0546687,4.0546687 0 0 1 0.0605,-0.10938 c 0.036,-0.0616 0.072,-0.12399 0.11133,-0.18359 a 4.0546687,4.0546687 0 0 1 0.004,-0.004 c 0.0563,-0.0855 0.11678,-0.169 0.17968,-0.25 a 4.0546687,4.0546687 0 0 1 0.29297,-0.34179 4.0546687,4.0546687 0 0 1 2.90821,-1.23047 z"
           id="path3425-4" />
      </g>
    </g>
  </g>
</svg>
